<svg xmlns="http://www.w3.org/2000/svg" viewBox="0 0 244.19 215.29"><defs><style>.cls-1{isolation:isolate;}.cls-2{fill:#fbdec6;}.cls-3{fill:#b3b3b3;}.cls-4{fill:#eff2fa;}.cls-5{opacity:0.97;}.cls-6{fill:#533465;}.cls-7{fill:#3c53c8;}.cls-8{fill:#6d6e70;opacity:0.8;mix-blend-mode:multiply;}.cls-9{fill:#e4b99b;}.cls-10{fill:#563014;}.cls-11{fill:#6e98cd;fill-rule:evenodd;}</style></defs><title>cloudwhithhands</title><g class="cls-1"><g id="Layer_1" data-name="Layer 1"><path class="cls-2" d="M1038.32-655.78h0l-0.22.17,0,0-0.17.17,0,0-0.15.18,0,0-0.13.19,0,0-0.11.2,0,0-0.09.23v0a2.62,2.62,0,0,0-.13.55,0.4,0.4,0,0,0,0,0c0,0.08,0,.16,0,0.23s0,0.06,0,.09,0,0.13,0,.19,0,0.07,0,.11,0,0.12,0,.18l0,0.12,0.06,0.18,0,0.12,0.08,0.18,0.06,0.12,0.1,0.18,0.07,0.12,0.14,0.19,0.07,0.1c0.08,0.1.17,0.19,0.26,0.29l6.54,6.54-0.82.82s-13.63-14.18-17-17c-2.36-2-4.2-.56-4.47,1.14a0.13,0.13,0,0,1,0,0c0,0.07,0,.14,0,0.2s0,0,0,.06,0,0.12,0,.18,0,0.05,0,.08,0,0.11,0,.16v0.09l0,0.15,0,0.09,0,0.14,0,0.09,0.05,0.14,0,0.09,0.07,0.13,0,0.08,0.1,0.14,0,0.07,0.17,0.19,11.18,11.18-0.82.82-13.63-13.63c-1.12-1.12-2.14-1.16-2.89-.67h0l-0.23.17,0,0-0.18.17,0,0-0.15.17,0,0a3.26,3.26,0,0,0-.3.49l0,0-0.1.23,0,0.07c0,0.07,0,.14-0.07.21l0,0.07c0,0.09,0,.18-0.06.27h0a2.57,2.57,0,0,0,0,.29s0,0,0,.07,0,0.14,0,.21,0,0.06,0,.09,0,0.13,0,.2,0,0.06,0,.08a2.22,2.22,0,0,0,0,.25v0a2.39,2.39,0,0,0,.08.26l0,0.07,0.08,0.17,0,0.08,0.1,0.16,0,0.07a2,2,0,0,0,.17.2l13.5,13.49-1.23,1.23-11.31-11.31a2.12,2.12,0,0,0-3.4.26h0a2.67,2.67,0,0,0-.31.53h0l-0.06.14,0,0.06,0,0.13,0,0.08,0,0.12,0,0.09s0,0.08,0,.12v0.21s0,0.07,0,.1,0,0.07,0,.11v0.21l0,0.11,0,0.1,0,0.11,0,0.09,0,0.11,0,0.09,0.06,0.12,0,0.08,0.09,0.12,0,0.06,0.16,0.18L1025-638l-1.18,1.18-8.72-8.72a2.28,2.28,0,0,0-3.67.12h0l-0.09.12,0,0.07-0.07.12,0,0.08-0.06.12,0,0.09,0,0.12,0,0.1,0,0.12,0,0.11,0,0.12,0,0.11,0,0.12v0.12s0,0.08,0,.12,0,0.08,0,.12,0,0.08,0,.12,0,0.09,0,.13,0,0.08,0,.12l0,0.13,0,0.11,0,0.13,0,0.11,0,0.14,0,0.1,0.06,0.14,0,0.1,0.09,0.16,0,0.08,0.16,0.23c1.91,2.45,17.86,18.95,19.49,19.49a21.44,21.44,0,0,0,10.9,1.18l5.67,5.67L1048-615l1.57,1.57,0.54,0.54,25.15,25.15,2.23,2.23,2,2,11.74,11.75,10.54-10.54-12-12-1.78-1.78-2.19-2.19-25.18-25.18h0l-0.54-.54-1.57-1.57-0.54-.54h0l-4.48-4.48c2.81-6.22.65-12.5-.68-14-1.77-2-8.18-8.45-10.91-10.9A2.82,2.82,0,0,0,1038.32-655.78Z" transform="translate(-964.93 681.08)"/><path class="cls-3" d="M1012-649.3l5,5-0.49.49-5.05-5.05Z" transform="translate(-964.93 681.08)"/><path class="cls-4" d="M1023.26-635.23l-20.11-20.11a0.84,0.84,0,0,1,0-1.18l24.32-24.32a0.84,0.84,0,0,1,1.18,0l20.1,20.11a0.84,0.84,0,0,1,0,1.18l-24.32,24.32A0.84,0.84,0,0,1,1023.26-635.23Z" transform="translate(-964.93 681.08)"/><g class="cls-5"><path class="cls-6" d="M1037.32-658.94l-12.65-12.65a0.8,0.8,0,0,1,0-1.14h0a0.81,0.81,0,0,1,1.14,0l12.65,12.65a0.81,0.81,0,0,1,0,1.14h0A0.8,0.8,0,0,1,1037.32-658.94Z" transform="translate(-964.93 681.08)"/></g><g class="cls-5"><path class="cls-6" d="M1037.89-653.82l-15.5-15.5a0.81,0.81,0,0,1,0-1.14h0a0.81,0.81,0,0,1,1.14,0L1039-655a0.8,0.8,0,0,1,0,1.14h0A0.8,0.8,0,0,1,1037.89-653.82Z" transform="translate(-964.93 681.08)"/></g><g class="cls-5"><path class="cls-6" d="M1031.15-656l-11-11a0.8,0.8,0,0,1,0-1.14h0a0.8,0.8,0,0,1,1.14,0l11,11a0.81,0.81,0,0,1,0,1.14h0A0.81,0.81,0,0,1,1031.15-656Z" transform="translate(-964.93 681.08)"/></g><g class="cls-5"><path class="cls-6" d="M1031.72-650.89l-13.88-13.88a0.81,0.81,0,0,1,0-1.14h0a0.81,0.81,0,0,1,1.14,0L1032.86-652a0.8,0.8,0,0,1,0,1.14h0A0.8,0.8,0,0,1,1031.72-650.89Z" transform="translate(-964.93 681.08)"/></g><g class="cls-5"><path class="cls-6" d="M1026.28-651.15l-11-11a0.8,0.8,0,0,1,0-1.14h0a0.81,0.81,0,0,1,1.14,0l11,11a0.81,0.81,0,0,1,0,1.14h0A0.8,0.8,0,0,1,1026.28-651.15Z" transform="translate(-964.93 681.08)"/></g><g class="cls-5"><path class="cls-6" d="M1026.85-646L1013-659.9a0.81,0.81,0,0,1,0-1.14h0a0.81,0.81,0,0,1,1.14,0L1028-647.16a0.81,0.81,0,0,1,0,1.14h0A0.81,0.81,0,0,1,1026.85-646Z" transform="translate(-964.93 681.08)"/></g><path class="cls-7" d="M1013.77-672.63l5.49,21.32-21.32-5.49Z" transform="translate(-964.93 681.08)"/><path class="cls-7" d="M1040.58-645.82l-21.32-5.49,5.49,21.32Z" transform="translate(-964.93 681.08)"/><path class="cls-8" d="M1019.26-651.31l-21.32-5.49L1024.75-630Z" transform="translate(-964.93 681.08)"/><path class="cls-2" d="M1052.84-644.66c-1.77-2-8.18-8.45-10.91-10.9a2.82,2.82,0,0,0-3.65-.25h0l-0.22.17,0,0-0.17.17,0,0-0.15.18,0,0-0.13.18,0,0-0.11.2,0,0a2.44,2.44,0,0,0-.1.23v0a2.63,2.63,0,0,0-.13.55v0c0,0.08,0,.16,0,0.23s0,0.06,0,.09,0,0.13,0,.19l0,0.11c0,0.06,0,.12,0,0.18l0,0.12c0,0.06,0,.12.06,0.18l0,0.12,0.08,0.18,0.06,0.12,0.11,0.18,0.07,0.12,0.14,0.19,0.07,0.1,0.26,0.29,6.54,6.54-0.82.82" transform="translate(-964.93 681.08)"/><path class="cls-9" d="M1023.24-506.17h0l0.17,0.22,0,0,0.17,0.17,0,0,0.18,0.15,0,0,0.18,0.13,0,0,0.2,0.11,0,0,0.23,0.09h0a2.67,2.67,0,0,0,.55.13h0.56l0.11,0,0.18,0,0.12,0,0.17-.06,0.12,0,0.17-.08,0.12-.06,0.18-.11,0.12-.07,0.19-.14,0.1-.07,0.29-.26,6.54-6.54,0.82,0.82s-14.18,13.63-17,17c-2,2.36-.56,4.2,1.14,4.47h0l0.2,0h0.57l0.15,0,0.09,0,0.14,0,0.1,0,0.13-.06,0.09,0,0.13-.07,0.08,0,0.14-.1,0.07,0,0.2-.17L1032.35-502l0.82,0.82-13.63,13.63c-1.11,1.12-1.15,2.14-.67,2.89h0a2.41,2.41,0,0,0,.16.22l0,0,0.17,0.18,0,0,0.17,0.15,0,0a3.28,3.28,0,0,0,.5.3l0,0,0.22,0.1,0.07,0,0.21,0.07,0.07,0,0.28,0.06h0l0.29,0h0.65l0.25,0h0l0.26-.08,0.07,0,0.17-.08,0.08,0,0.16-.1,0.07,0,0.2-.17,13.49-13.5,1.23,1.23L1026.49-485a2.12,2.12,0,0,0,.26,3.4h0a2.67,2.67,0,0,0,.52.31h0l0.14,0.06,0.06,0,0.13,0,0.08,0,0.12,0,0.09,0,0.12,0h0.62l0.11,0,0.1,0,0.11,0,0.09,0,0.12,0,0.09,0,0.11-.06,0.08,0,0.12-.09,0.06,0,0.18-.16L1041-492.87l1.18,1.18-8.72,8.72a2.28,2.28,0,0,0,.12,3.67h0l0.12,0.09,0.07,0,0.12,0.07,0.08,0,0.12,0.06,0.09,0,0.12,0,0.1,0,0.12,0,0.11,0,0.12,0,0.12,0,0.12,0h0.73l0.13,0,0.12,0,0.13,0,0.11,0,0.14,0,0.11,0,0.14-.06,0.09,0,0.16-.09,0.08,0,0.23-.16c2.45-1.91,18.95-17.86,19.49-19.49a21.44,21.44,0,0,0,1.18-10.9l5.67-5.67,0.54-.54,1.57-1.57,0.54-.54,25.15-25.15,2.23-2.23,2-2,11.74-11.74-10.54-10.54-12,12-1.78,1.78-2.19,2.19-25.18,25.18h0L1055-528l-1.57,1.57-0.54.54h0l-4.48,4.48c-6.22-2.81-12.5-.65-14,0.68-2,1.77-8.45,8.18-10.91,10.9A2.82,2.82,0,0,0,1023.24-506.17Z" transform="translate(-964.93 681.08)"/><path class="cls-3" d="M1029.71-479.89l5.05-5,0.5,0.49-5.05,5Z" transform="translate(-964.93 681.08)"/><path class="cls-4" d="M1043.79-491.11L1023.68-471a0.83,0.83,0,0,1-1.18,0l-24.32-24.32a0.84,0.84,0,0,1,0-1.18l20.1-20.11a0.84,0.84,0,0,1,1.18,0l24.32,24.32A0.84,0.84,0,0,1,1043.79-491.11Z" transform="translate(-964.93 681.08)"/><g class="cls-5"><path class="cls-6" d="M1020.07-505.17l-12.65,12.65a0.81,0.81,0,0,1-1.14,0h0a0.81,0.81,0,0,1,0-1.14l12.65-12.65a0.81,0.81,0,0,1,1.14,0h0A0.81,0.81,0,0,1,1020.07-505.17Z" transform="translate(-964.93 681.08)"/></g><g class="cls-5"><path class="cls-6" d="M1025.2-505.74l-15.51,15.5a0.8,0.8,0,0,1-1.14,0h0a0.81,0.81,0,0,1,0-1.14l15.5-15.5a0.8,0.8,0,0,1,1.14,0h0A0.81,0.81,0,0,1,1025.2-505.74Z" transform="translate(-964.93 681.08)"/></g><g class="cls-5"><path class="cls-6" d="M1023-499l-11,11a0.8,0.8,0,0,1-1.14,0h0a0.8,0.8,0,0,1,0-1.14l11-11a0.8,0.8,0,0,1,1.14,0h0A0.8,0.8,0,0,1,1023-499Z" transform="translate(-964.93 681.08)"/></g><g class="cls-5"><path class="cls-6" d="M1028.13-499.57l-13.88,13.88a0.8,0.8,0,0,1-1.14,0h0a0.8,0.8,0,0,1,0-1.14L1027-500.71a0.81,0.81,0,0,1,1.14,0h0A0.81,0.81,0,0,1,1028.13-499.57Z" transform="translate(-964.93 681.08)"/></g><g class="cls-5"><path class="cls-6" d="M1027.87-494.13l-11,11a0.81,0.81,0,0,1-1.14,0h0a0.8,0.8,0,0,1,0-1.14l11-11a0.81,0.81,0,0,1,1.14,0h0A0.81,0.81,0,0,1,1027.87-494.13Z" transform="translate(-964.93 681.08)"/></g><g class="cls-5"><path class="cls-6" d="M1033-494.7l-13.88,13.88a0.81,0.81,0,0,1-1.14,0h0a0.8,0.8,0,0,1,0-1.14l13.88-13.88a0.81,0.81,0,0,1,1.14,0h0A0.81,0.81,0,0,1,1033-494.7Z" transform="translate(-964.93 681.08)"/></g><path class="cls-7" d="M1006.38-481.62l21.32-5.49-5.5,21.32Z" transform="translate(-964.93 681.08)"/><path class="cls-7" d="M1033.2-508.43l-5.49,21.32L1049-492.6Z" transform="translate(-964.93 681.08)"/><path class="cls-8" d="M1027.71-487.11l-5.5,21.32L1049-492.6Z" transform="translate(-964.93 681.08)"/><path class="cls-9" d="M1034.35-520.69c-2,1.77-8.45,8.18-10.9,10.91a2.82,2.82,0,0,0-.25,3.65h0l0.17,0.21,0,0,0.17,0.18,0,0,0.17,0.15,0,0,0.19,0.13,0,0,0.2,0.11,0,0,0.23,0.1h0a2.56,2.56,0,0,0,.55.13h0.56l0.11,0,0.18,0,0.12,0,0.17-.05,0.12,0,0.18-.08,0.12-.06,0.18-.11,0.12-.07,0.2-.14,0.1-.07,0.29-.26,6.54-6.54,0.82,0.82" transform="translate(-964.93 681.08)"/><path class="cls-10" d="M994.21-581.27h0c0,0.09,0,.18,0,0.27v0c0,0.08,0,.16,0,0.24s0,0,0,0,0,0.15,0,.23v0.05c0,0.07,0,.15,0,0.22v0.06c0,0.07,0,.15.06,0.22l0,0,0.1,0.23v0a2.61,2.61,0,0,0,.3.48l0,0,0.16,0.17,0.07,0.06,0.15,0.13,0.09,0.07,0.15,0.1,0.1,0.06,0.16,0.09,0.12,0.05,0.18,0.07,0.13,0,0.2,0.05,0.13,0,0.24,0,0.12,0,0.39,0h9.25v1.16s-19.66-.39-24.1,0c-3.08.27-3.37,2.58-2.36,4l0,0,0.13,0.16,0,0,0.12,0.13,0.06,0.05,0.12,0.11,0.07,0.05,0.13,0.09,0.08,0.05,0.13,0.07,0.09,0,0.14,0.06,0.09,0,0.15,0,0.1,0,0.17,0h16.15v1.16H978.46c-1.58,0-2.33.69-2.52,1.56h0a2.33,2.33,0,0,0,0,.28v0c0,0.08,0,.16,0,0.25s0,0,0,.06,0,0.15,0,.23v0.05a3.25,3.25,0,0,0,.14.56v0l0.09,0.23,0,0.07,0.1,0.2,0,0.06,0.15,0.24h0l0.18,0.23,0,0.05,0.15,0.15,0.06,0.06,0.15,0.13,0.07,0.05,0.21,0.15h0l0.24,0.13,0.07,0,0.18,0.07,0.09,0,0.18,0,0.08,0,0.27,0h19.08V-564h-16a2.12,2.12,0,0,0-2.22,2.59h0a2.76,2.76,0,0,0,.15.59h0l0.06,0.14,0,0.06,0.06,0.12,0,0.07,0.07,0.11,0,0.07,0.07,0.09,0.06,0.07L980-560l0.07,0.07,0.08,0.07,0.08,0.07,0.08,0.06,0.09,0.06,0.09,0.05,0.1,0.06,0.09,0,0.11,0,0.09,0,0.13,0,0.09,0,0.15,0h16.12v1.67H985A2.28,2.28,0,0,0,982.5-555h0l0,0.15v0.08l0,0.13,0,0.09,0,0.13,0,0.1,0,0.12,0,0.1,0.06,0.11,0.05,0.1,0.07,0.11,0.06,0.1,0.07,0.1,0.07,0.09,0.08,0.09,0.08,0.09,0.08,0.08,0.1,0.09,0.09,0.07,0.11,0.08,0.09,0.07,0.12,0.07,0.1,0.06,0.13,0.06,0.1,0,0.15,0.06,0.1,0,0.17,0,0.09,0,0.27,0c3.08,0.39,26,.77,27.57,0a21.45,21.45,0,0,0,8.54-6.88H1091v-14.91h-68.24c-2.41-6.39-8.38-9.3-10.41-9.45-2.7-.19-11.76-0.19-15.42,0A2.82,2.82,0,0,0,994.21-581.27Z" transform="translate(-964.93 681.08)"/><path class="cls-3" d="M980.2-558.1h7.14v0.7H980.2v-0.7Z" transform="translate(-964.93 681.08)"/><path class="cls-4" d="M998.09-556.09H969.66a0.84,0.84,0,0,1-.84-0.84v-34.39a0.84,0.84,0,0,1,.84-0.84h28.43a0.84,0.84,0,0,1,.84.84v34.39A0.84,0.84,0,0,1,998.09-556.09Z" transform="translate(-964.93 681.08)"/><g class="cls-5"><path class="cls-6" d="M991.26-582.8h-17.9a0.81,0.81,0,0,1-.8-0.8h0a0.81,0.81,0,0,1,.8-0.81h17.9a0.81,0.81,0,0,1,.81.81h0A0.81,0.81,0,0,1,991.26-582.8Z" transform="translate(-964.93 681.08)"/></g><g class="cls-5"><path class="cls-6" d="M995.29-579.58H973.37a0.81,0.81,0,0,1-.8-0.8h0a0.81,0.81,0,0,1,.8-0.81h21.92a0.81,0.81,0,0,1,.8.81h0A0.8,0.8,0,0,1,995.29-579.58Z" transform="translate(-964.93 681.08)"/></g><g class="cls-5"><path class="cls-6" d="M989-576.36H973.37a0.81,0.81,0,0,1-.8-0.81h0a0.81,0.81,0,0,1,.8-0.8H989a0.8,0.8,0,0,1,.81.8h0A0.81,0.81,0,0,1,989-576.36Z" transform="translate(-964.93 681.08)"/></g><g class="cls-5"><path class="cls-6" d="M993-573.14H973.37a0.81,0.81,0,0,1-.8-0.8h0a0.81,0.81,0,0,1,.8-0.81H993a0.81,0.81,0,0,1,.81.81h0A0.81,0.81,0,0,1,993-573.14Z" transform="translate(-964.93 681.08)"/></g><g class="cls-5"><path class="cls-6" d="M989-569.48H973.37a0.81,0.81,0,0,1-.8-0.81h0a0.81,0.81,0,0,1,.8-0.81H989a0.81,0.81,0,0,1,.81.81h0A0.8,0.8,0,0,1,989-569.48Z" transform="translate(-964.93 681.08)"/></g><g class="cls-5"><path class="cls-6" d="M993-566.26H973.37a0.81,0.81,0,0,1-.8-0.81h0a0.81,0.81,0,0,1,.8-0.81H993a0.81,0.81,0,0,1,.81.81h0A0.81,0.81,0,0,1,993-566.26Z" transform="translate(-964.93 681.08)"/></g><path class="cls-7" d="M964.93-575.83l19,11.19-19,11.19v-22.39Z" transform="translate(-964.93 681.08)"/><path class="cls-7" d="M1002.85-575.83l-19,11.19,19,11.19v-22.39Z" transform="translate(-964.93 681.08)"/><path class="cls-7" d="M983.89-564.64l-19,11.19h37.92Z" transform="translate(-964.93 681.08)"/><path class="cls-7" d="M1019.26-651.31l-21.32-5.49L1024.75-630Z" transform="translate(-964.93 681.08)"/><path class="cls-8" d="M1019.26-651.31l-21.32-5.49L1024.75-630Z" transform="translate(-964.93 681.08)"/><path class="cls-7" d="M1027.71-487.11l-5.5,21.32L1049-492.6Z" transform="translate(-964.93 681.08)"/><path class="cls-8" d="M1027.71-487.11l-5.5,21.32L1049-492.6Z" transform="translate(-964.93 681.08)"/><path class="cls-8" d="M983.89-564.64l-19,11.19h37.92Z" transform="translate(-964.93 681.08)"/><path class="cls-10" d="M1012.33-583.68c-2.7-.19-11.76-0.19-15.42,0a2.82,2.82,0,0,0-2.76,2.4h0c0,0.09,0,.18,0,0.27a0.24,0.24,0,0,0,0,0c0,0.08,0,.16,0,0.24s0,0,0,0,0,0.15,0,.23v0.05a2,2,0,0,0,0,.22v0.06c0,0.07,0,.15.06,0.22l0,0c0,0.08.06,0.15,0.09,0.23v0a2.62,2.62,0,0,0,.3.48l0,0,0.16,0.17,0.07,0.06,0.14,0.13,0.09,0.07,0.15,0.1,0.1,0.06,0.16,0.09,0.12,0.05,0.18,0.07,0.13,0,0.2,0.05,0.13,0,0.24,0,0.12,0,0.39,0h9.25v1.16" transform="translate(-964.93 681.08)"/><path class="cls-7" d="M1183.75-539.09a25.37,25.37,0,0,0,25.37-25.37,25.38,25.38,0,0,0-19.63-24.71,46.48,46.48,0,0,0-46.47-46,46.46,46.46,0,0,0-40.7,24,19.73,19.73,0,0,0-7.86-1.62,19.81,19.81,0,0,0-19.63,17.21,28.54,28.54,0,0,0-23,28,28.54,28.54,0,0,0,28.54,28.54h103.33Z" transform="translate(-964.93 681.08)"/><path class="cls-11" d="M1164.93-562.42a17.61,17.61,0,0,0,.23-5c0-.66-0.51-0.18-0.71-0.1a6.79,6.79,0,0,1-4.58.37,2.59,2.59,0,0,1-1.35-.68c-0.66-.82-1.17-0.73-2-0.16-2.46,1.65-4.76,1.48-7.09-.39a0.58,0.58,0,0,0-.91.08,6.06,6.06,0,0,1-5,1.31c-2.92-.45-3.72-2.73-3.85-4.93-0.12-1.89-.05-3.79,0-5.68,0-.62-0.11-1-0.83-0.9s-0.75-.33-0.75-0.87,0.1-.95.77-0.86,0.82-.34.81-0.93c0-1.2,0-2.41,0-3.61a0.61,0.61,0,0,1,.75-0.76q2,0.05,3.94,0a0.66,0.66,0,0,1,.81.82c0,1.16,0,2.33,0,3.5,0,0.76.2,1.08,1,1,0.62-.08,1,0,1,0.85s-0.3,1-1,.88c-0.86-.13-1,0.29-1,1.06,0,1.75,0,3.5,0,5.25,0,0.59,0,1.28.65,1.46a1.53,1.53,0,0,0,1.5-.7,4.31,4.31,0,0,0,.9-2.85c0-4,0-7.95,0-11.92,0-1,.19-1.39,1.24-1.3a23.35,23.35,0,0,0,3.28,0c0.79,0,1,.25,1,1,0,4.34,0,8.67,0,13,0,0.44,0,.88,0,1.31s-0.07,1.23.48,1.44a1.59,1.59,0,0,0,1.63-.68,3.73,3.73,0,0,0,.95-2.6c0-1.79,0-3.57,0-5.36a0.71,0.71,0,0,1,.86-0.89c1.24,0,2.48,0,3.71,0a0.76,0.76,0,0,1,.93.95c0,2.41,0,4.81,0,7.22a1.15,1.15,0,0,0,.53,1.32,1.44,1.44,0,0,0,1.53-.58,4,4,0,0,0,1-2.81c0-1.75,0-3.5,0-5.25a0.67,0.67,0,0,1,.8-0.83c1.31,0,2.62,0,3.94,0a0.63,0.63,0,0,1,.75.78c0,5.9,0,11.81,0,17.71a5.2,5.2,0,0,1-4.39,5,5.82,5.82,0,0,1-6.87-3.09,10,10,0,0,1-.52-4.08c0-2.13,0-2.13,2.13-2.13h0.44c0.91,0,2-.36,2.67.15s0.15,1.64.24,2.5A1.19,1.19,0,0,0,1164.93-562.42Z" transform="translate(-964.93 681.08)"/><path class="cls-11" d="M1132.68-585.55a4,4,0,0,0-.28,2.36c0,0.9-.28,2,0.16,2.66s1.7,0.24,2.58.23,0.83,0.5.89,1.06c0.08,0.73-.41.69-0.91,0.71-0.86,0-2-.39-2.53.18s-0.19,1.73-.2,2.63c0,5.17,0,10.35,0,15.52,0,0.9-.21,1.23-1.14,1.17a19.81,19.81,0,0,0-3.38,0c-0.83.09-1-.19-1-0.93,0-2.29,0-4.59,0-6.89,0-.93-0.21-1-1-0.66a5.93,5.93,0,0,1-3.63.46c-2.44-.46-3.73-2-3.84-4.7s0-5.17,0-7.76c0-.65.27-0.79,0.85-0.78,1.24,0,2.48,0,3.72,0,0.75,0,.92.26,0.92,1,0,2.44,0,4.88,0,7.32a1.11,1.11,0,0,0,.42,1.25,1.44,1.44,0,0,0,1.37-.48c1.13-.86,1.13-2.15,1.23-3.36,0.08-1,0-2,0-3a0.81,0.81,0,0,0-1-1c-0.61,0-1.21.14-1.19-.88s0.54-.91,1.13-0.84c0.88,0.11,1.12-.26,1.1-1.11a19.24,19.24,0,0,1,.22-6,5.61,5.61,0,0,1,6.06-4.09,5.39,5.39,0,0,1,5.36,4.89,38.46,38.46,0,0,1,.16,3.92c0,0.65-.26.8-0.85,0.79-1.27,0-2.55,0-3.82,0-0.72,0-.83-0.28-0.83-0.91C1133.22-583.67,1133.59-584.7,1132.68-585.55Z" transform="translate(-964.93 681.08)"/><path class="cls-11" d="M1107.65-567a11.88,11.88,0,0,1-7.92-2.44c-0.56-.45-0.64-0.74-0.08-1.26a33.45,33.45,0,0,0,2.38-2.56,1,1,0,0,1,1.47-.19,8.35,8.35,0,0,0,6.4,1,2,2,0,0,0,1.71-2.07,2,2,0,0,0-1.93-1.86,44,44,0,0,1-4.71-.8,5.81,5.81,0,0,1-4.67-5c-0.39-2.79.14-5.4,2.52-7.27a10.29,10.29,0,0,1,7.63-1.86,11.18,11.18,0,0,1,5.85,2.14c0.62,0.46.78,0.8,0.14,1.33a6,6,0,0,0-.77.78c-1.22,1.46-2.35,2.65-4.52,1.19-1.16-.78-2.75-0.46-4.09.2A1.65,1.65,0,0,0,1106-584a1.81,1.81,0,0,0,1.49,1.68c1.35,0.25,2.72.46,4.08,0.66,3.15,0.46,5.14,2.2,5.72,5,0.72,3.51-.54,6.67-3.27,8.23A11.51,11.51,0,0,1,1107.65-567Z" transform="translate(-964.93 681.08)"/><path class="cls-11" d="M1119.93-583.81c1.08,0.4,2.2.07,3.3,0.22,0.26,0,.69-0.12.72,0.26s-0.4.45-.72,0.45c-1.41,0-2.82,0-4.23,0-0.73,0-.37-0.38-0.31-0.68Z" transform="translate(-964.93 681.08)"/><path class="cls-11" d="M1118.5-585a0.36,0.36,0,0,1,.32-0.45,35.76,35.76,0,0,1,4.89-.09,0.29,0.29,0,0,1,.32.34,0.34,0.34,0,0,1-.39.29A30.17,30.17,0,0,1,1118.5-585Z" transform="translate(-964.93 681.08)"/><path class="cls-11" d="M1120.94-582.48h2.18c0.22,0,.47,0,0.5.3s-0.23.33-.45,0.33h-4.35a0.45,0.45,0,0,1-.55-0.4c0-.38.39-0.23,0.61-0.23,0.69,0,1.38,0,2.07,0v0Z" transform="translate(-964.93 681.08)"/><path class="cls-11" d="M1119.93-583.81l-1.24.22c-0.13-.34-0.86-0.11-0.7-0.64s0.63-.23,1-0.24c1.4,0,2.8,0,4.19,0l0,0.38Z" transform="translate(-964.93 681.08)"/></g></g></svg>