<svg id="Layer_1" data-name="Layer 1" xmlns="http://www.w3.org/2000/svg" viewBox="0 0 28 28"><defs><style>.cls-1{fill:#18c1e3;}</style></defs><title>date</title><path class="cls-1" d="M831.45,5315.94c-0.73-.39-5.26-2.83-7.76-4.4a2.31,2.31,0,0,0-3.39,0c-2.49,1.56-7,4-7.76,4.4H808v22.87h28v-22.87h-4.55Zm-8.41-3.73h0a1.44,1.44,0,0,1,.31.57l0,0.06a1.38,1.38,0,0,1,0,.29,1.4,1.4,0,0,1-2.8,0,1.35,1.35,0,0,1,0-.29l0-.06a1.44,1.44,0,0,1,.31-0.57h0A1.38,1.38,0,0,1,823,5312.21Zm-3.37.82s0,0.08,0,.11a2.33,2.33,0,0,0,4.67,0s0-.08,0-0.11c1.68,1,3.75,2.15,5.16,2.91h-15C815.92,5315.17,818,5314,819.67,5313Zm-7,3.85h22.4v2.33H808.93v-2.33h3.73Zm-3.73,21v-17.73h26.13v17.73H808.93Z" transform="translate(-808 -5310.81)"/><circle class="cls-1" cx="10.73" cy="13.07" r="0.47"/><circle class="cls-1" cx="14" cy="13.07" r="0.47"/><circle class="cls-1" cx="17.27" cy="13.07" r="0.47"/><circle class="cls-1" cx="20.53" cy="13.07" r="0.47"/><circle class="cls-1" cx="23.8" cy="13.07" r="0.47"/><circle class="cls-1" cx="4.2" cy="16.8" r="0.47"/><circle class="cls-1" cx="7.47" cy="16.8" r="0.47"/><circle class="cls-1" cx="10.73" cy="16.8" r="0.47"/><circle class="cls-1" cx="14" cy="16.8" r="0.47"/><circle class="cls-1" cx="17.27" cy="16.8" r="0.47"/><circle class="cls-1" cx="20.53" cy="16.8" r="0.47"/><circle class="cls-1" cx="23.8" cy="16.8" r="0.47"/><circle class="cls-1" cx="4.2" cy="20.07" r="0.47"/><circle class="cls-1" cx="7.47" cy="20.07" r="0.47"/><circle class="cls-1" cx="10.73" cy="20.07" r="0.47"/><circle class="cls-1" cx="14" cy="20.07" r="0.47"/><circle class="cls-1" cx="17.27" cy="20.07" r="0.47"/><circle class="cls-1" cx="20.53" cy="20.07" r="0.47"/><circle class="cls-1" cx="23.8" cy="20.07" r="0.47"/><circle class="cls-1" cx="4.2" cy="23.8" r="0.47"/><circle class="cls-1" cx="7.47" cy="23.8" r="0.47"/><circle class="cls-1" cx="10.73" cy="23.8" r="0.47"/><circle class="cls-1" cx="14" cy="23.8" r="0.47"/><circle class="cls-1" cx="17.27" cy="23.8" r="0.47"/></svg>