<svg xmlns="http://www.w3.org/2000/svg" xmlns:xlink="http://www.w3.org/1999/xlink" viewBox="0 0 421.46 152.86"><defs><style>.cls-1{isolation:isolate;}.cls-2{opacity:0.1;}.cls-3{fill:#25e0ef;}.cls-4{fill:#221f1f;}.cls-5{mix-blend-mode:color-dodge;fill:url(#radial-gradient);}.cls-6{fill:#fff;}.cls-7{mask:url(#mask);}.cls-8{opacity:0.8;fill:url(#radial-gradient-2);}.cls-9{fill:#29221b;}.cls-10{fill:#f1e0ee;}.cls-11{filter:url(#luminosity-noclip);}</style><radialGradient id="radial-gradient" cx="579.94" cy="14944.27" r="3.22" gradientTransform="matrix(-2.33, -0.03, 0.01, -0.42, 2024.93, 6337.05)" gradientUnits="userSpaceOnUse"><stop offset="0" stop-color="#d5d5d4"/><stop offset="0.1" stop-color="#cececd"/><stop offset="0.24" stop-color="#bbbbba"/><stop offset="0.41" stop-color="#9b9b9b"/><stop offset="0.6" stop-color="#70706f"/><stop offset="0.81" stop-color="#383838"/><stop offset="0.99"/></radialGradient><filter id="luminosity-noclip" x="780.86" y="79.21" width="20.8" height="3.87" filterUnits="userSpaceOnUse" color-interpolation-filters="sRGB"><feFlood flood-color="#fff" result="bg"/><feBlend in="SourceGraphic" in2="bg"/></filter><mask id="mask" x="7.48" y="2.83" width="20.8" height="3.87" maskUnits="userSpaceOnUse"><g class="cls-11"/></mask><radialGradient id="radial-gradient-2" cx="584.03" cy="15764.65" r="5.05" gradientTransform="matrix(-2.06, -0.02, 0.01, -0.38, 1857.97, 6126.14)" gradientUnits="userSpaceOnUse"><stop offset="0" stop-color="#fff"/><stop offset="0.86" stop-color="#fff"/><stop offset="1" stop-color="#fff"/></radialGradient></defs><title>deskAndRope</title><g class="cls-1"><g id="Layer_1" data-name="Layer 1"><g class="cls-2"><rect class="cls-3" x="282.18" y="2.98" width="6.87" height="45.7"/><path class="cls-3" d="M1038.76,182.67V145.3A20.23,20.23,0,0,1,1059,125.07h0a20.23,20.23,0,0,1,20.23,20.23v37.37" transform="translate(-773.38 -76.39)"/></g><g class="cls-2"><rect class="cls-3" x="208.93" y="2.98" width="6.87" height="92.28"/><path class="cls-3" d="M965.51,229.25V191.88a20.23,20.23,0,0,1,20.23-20.23h0A20.23,20.23,0,0,1,1006,191.88v37.37" transform="translate(-773.38 -76.39)"/></g><rect class="cls-4" x="10.3" y="4.48" width="16.25" height="4"/><path class="cls-5" d="M783.74,81.29c0-.74,3.39-1.3,7.54-1.24s7.51,0.7,7.49,1.44-3.39,1.3-7.54,1.24S783.73,82,783.74,81.29Z" transform="translate(-773.38 -76.39)"/><ellipse class="cls-6" cx="17.91" cy="4.7" rx="10.61" ry="2.12"/><g class="cls-7"><path class="cls-8" d="M780.86,81c0-1.07,4.7-1.88,10.44-1.82s10.38,1,10.36,2-4.7,1.88-10.44,1.82S780.83,82.1,780.86,81Z" transform="translate(-773.38 -76.39)"/></g><rect class="cls-9" y="1.26" width="36.85" height="3.72"/><rect class="cls-10" x="6.78" width="414.68" height="8.92"/></g></g></svg>