<svg xmlns="http://www.w3.org/2000/svg" viewBox="0 0 364.7 388.34"><defs><style>.cls-1{isolation:isolate;}.cls-2{fill:#fbdec6;}.cls-3{fill:#533465;}.cls-4{fill:#25e0ef;}.cls-5{fill:#3c53c8;}.cls-6{fill:#6d6e70;opacity:0.8;mix-blend-mode:multiply;}.cls-7{fill:#f2f2f2;}.cls-8{fill:#e8c6af;}.cls-9{fill:#e4b99b;}.cls-10{fill:#fff;}.cls-11{fill:#4b2c11;}.cls-12{fill:#331d0f;}.cls-13{fill:#d8966a;}.cls-14{opacity:0.2;}</style></defs><title>glassman</title><g class="cls-1"><g id="Layer_1" data-name="Layer 1"><rect class="cls-2" x="122.9" y="156.73" width="7.79" height="61.26"/><rect class="cls-2" x="236.06" y="154.74" width="7.8" height="63.26"/><rect class="cls-3" x="161.8" y="161.99" width="15.59" height="212.25"/><rect class="cls-3" x="190.47" y="161.99" width="15.59" height="212.25"/><path class="cls-4" d="M833.15,341.94s-14.29,2.2-20,20A53.1,53.1,0,0,0,811,372.65l10.34,0.16,0.17-1.35c2.53-19.71,15-19.45,15-19.45l0.09,24.1h70.72l0.08-24.1s12.44-.25,15,19.45l0.17,1.35,10.34-.16A53,53,0,0,0,930.68,362c-5.75-17.85-20-20-20-20V331.68H833.15v10.26Z" transform="translate(-688.07 -216.79)"/><polygon class="cls-5" points="177.4 373.74 177.4 387.98 125.26 387.98 161.8 373.74 177.4 373.74"/><polygon class="cls-5" points="190.47 373.74 190.47 387.98 242.61 387.98 206.06 373.74 190.47 373.74"/><rect class="cls-3" x="118.4" y="153.99" width="14.98" height="8.11"/><rect class="cls-3" x="232.46" y="153.99" width="14.98" height="8.11"/><rect class="cls-4" y="202.46" width="364.7" height="17.74"/><polygon class="cls-5" points="350.67 228.91 14.03 228.91 0 220.2 364.7 220.2 350.67 228.91"/><rect class="cls-5" x="14.4" y="228.9" width="20.34" height="159.44"/><rect class="cls-5" x="329.73" y="228.9" width="20.34" height="159.44"/><rect class="cls-6" x="329.73" y="228.9" width="20.34" height="6.67"/><rect class="cls-6" x="14.4" y="228.9" width="20.34" height="6.67"/><path class="cls-3" d="M746.92,396.49h0v-2.18a1.8,1.8,0,0,0-1.8-1.8H730a1.8,1.8,0,0,0-1.8,1.8v23.12a1.8,1.8,0,0,0,1.8,1.8h15.11a1.81,1.81,0,0,0,1.8-1.8v-4.34h0A8.3,8.3,0,0,0,746.92,396.49Zm0,14.61h0V398.48h0A6.31,6.31,0,0,1,746.92,411.1Z" transform="translate(-688.07 -216.79)"/><rect class="cls-5" x="967.91" y="383.32" width="3.52" height="32.38" transform="translate(-747.42 -19.77) rotate(-11.26)"/><polygon class="cls-2" points="276.69 167.22 277.77 163.86 280.14 166.48 276.69 167.22"/><polygon class="cls-3" points="278.47 164.63 277.77 163.86 277.4 165.01 278.47 164.63"/><rect class="cls-4" x="980.36" y="383.66" width="3.52" height="32.38" transform="translate(-511.8 -506.18) rotate(18.39)"/><polygon class="cls-2" points="297.44 167.16 300.05 164.78 300.81 168.23 297.44 167.16"/><polygon class="cls-3" points="300.27 165.79 300.05 164.78 299.16 165.59 300.27 165.79"/><rect class="cls-3" x="277.06" y="181.03" width="22.79" height="21.43" rx="0.61" ry="0.61"/><rect class="cls-5" x="121.67" y="127.49" width="122.47" height="74.97" rx="4.72" ry="4.72"/><path class="cls-3" d="M809.74,412.58v1.95a4.72,4.72,0,0,0,4.72,4.72h113a4.72,4.72,0,0,0,4.72-4.72v-1.95H809.74Z" transform="translate(-688.07 -216.79)"/><circle class="cls-7" cx="182.91" cy="164.98" r="7.43"/><rect class="cls-6" x="145.08" y="118.74" width="77.49" height="3.92"/><rect class="cls-2" x="119.25" y="11.58" width="125.3" height="108.18" rx="13.39" ry="13.39"/><rect class="cls-8" x="167.17" y="19.85" width="2.67" height="79.82"/><rect class="cls-9" x="168.51" y="19.85" width="25.74" height="79.82"/><path class="cls-3" d="M932.1,316a11,11,0,0,1-11-11V272.69a2.43,2.43,0,0,0-2.43-2.43H820.18a2.44,2.44,0,0,0-2.43,2.43V305a11,11,0,1,1-21.91,0V241.13a24.37,24.37,0,0,1,24.35-24.34h98.53a24.37,24.37,0,0,1,24.34,24.34V305A11,11,0,0,1,932.1,316Z" transform="translate(-688.07 -216.79)"/><path class="cls-10" d="M852.53,295a11.7,11.7,0,1,1-23.4,0h23.4Z" transform="translate(-688.07 -216.79)"/><circle class="cls-11" cx="152.76" cy="84.07" r="3.56"/><circle class="cls-12" cx="152.76" cy="84.07" r="2.41"/><circle class="cls-10" cx="151.55" cy="82.79" r="0.97"/><path class="cls-10" d="M886,294.7a11.7,11.7,0,0,0,23.4,0H886Z" transform="translate(-688.07 -216.79)"/><circle class="cls-11" cx="209.67" cy="83.76" r="3.56"/><circle class="cls-12" cx="209.67" cy="83.76" r="2.41"/><circle class="cls-10" cx="210.88" cy="82.49" r="0.97"/><polyline class="cls-13" points="171.78 108.17 175.83 112.2 187.79 112.2 191.85 108.17"/><g class="cls-14"><path class="cls-4" d="M893.83,319.65a22.78,22.78,0,1,1,22.78-22.78A22.81,22.81,0,0,1,893.83,319.65Z" transform="translate(-688.07 -216.79)"/></g><g class="cls-14"><path class="cls-4" d="M845.57,319.74A22.78,22.78,0,1,1,868.36,297,22.81,22.81,0,0,1,845.57,319.74Z" transform="translate(-688.07 -216.79)"/></g><path class="cls-3" d="M893.33,321.51A24.64,24.64,0,1,1,918,296.87,24.67,24.67,0,0,1,893.33,321.51Zm0-45.52a20.88,20.88,0,1,0,20.88,20.88A20.91,20.91,0,0,0,893.33,276Z" transform="translate(-688.07 -216.79)"/><path class="cls-3" d="M845.57,321.51a24.64,24.64,0,1,1,24.64-24.64A24.67,24.67,0,0,1,845.57,321.51Zm0-45.52a20.88,20.88,0,1,0,20.89,20.88A20.91,20.91,0,0,0,845.57,276Z" transform="translate(-688.07 -216.79)"/></g></g></svg>