<svg id="Layer_1" data-name="Layer 1" xmlns="http://www.w3.org/2000/svg" viewBox="0 0 23.17 23.17"><defs><style>.cls-1{fill:#18c1e3;}</style></defs><title>linkimg</title><path class="cls-1" d="M998.94,5328.86L995,5325a3.88,3.88,0,0,0-5.49,0l-1.15,1.15,0,0,1.7,1.7,0,0,1.15-1.15a1.47,1.47,0,0,1,2.08,0l3.91,3.91a1.47,1.47,0,0,1,0,2.08l-0.63.63a1.47,1.47,0,0,1-2.08,0l-1.75-1.75a5,5,0,0,1-2.67.74l2.72,2.72a3.89,3.89,0,0,0,5.49,0l0.63-.63a3.89,3.89,0,0,0,0-5.49h0Zm0,0" transform="translate(-976.9 -5312.94)"/><path class="cls-1" d="M979.74,5316.41l0.63-.63a1.48,1.48,0,0,1,2.08,0l3.91,3.91a1.47,1.47,0,0,1,0,2.08l-1.15,1.15,0,0,1.7,1.7,0,0,1.15-1.15a3.89,3.89,0,0,0,0-5.49l-3.91-3.91a3.89,3.89,0,0,0-5.49,0l-0.63.63a3.89,3.89,0,0,0,0,5.49l2.72,2.72a5,5,0,0,1,.74-2.67l-1.75-1.75a1.47,1.47,0,0,1,0-2.08h0Zm0,0" transform="translate(-976.9 -5312.94)"/><path class="cls-1" d="M993.67,5328.7L992,5327l-1.2,1.2a1.47,1.47,0,0,1-2.08,0l-3.91-3.91a1.47,1.47,0,0,1,0-2.08l1.36-1.36-1.7-1.7-1.36,1.36a3.89,3.89,0,0,0,0,5.49l3.91,3.91a3.89,3.89,0,0,0,5.49,0Zm0,0" transform="translate(-976.9 -5312.94)"/></svg>