<svg id="Layer_1" data-name="Layer 1" xmlns="http://www.w3.org/2000/svg" viewBox="0 0 104.57 111.56"><defs><style>.cls-1{fill:#fabe9e;}.cls-2{fill:#4794d0;}.cls-3{fill:#388dcb;}.cls-4{fill:#0a4064;}.cls-5{fill:#fff;}.cls-6{fill:#f3b491;}.cls-7{fill:#71503f;}.cls-8{fill:#231f20;}.cls-9{fill:#ea4c25;}.cls-10{fill:#3f230f;}.cls-11{fill:#f19772;}</style></defs><title>photo</title><path class="cls-1" d="M229.76,1791.85c0,1.78-1.29,9.79-16.14,16.24h-0.76c-14.65-6.92-15.65-15-15.63-16.74h0a27.53,27.53,0,0,1,2-9.33c4.08,5.41,8.94,9.06,14.23,9.14s10.27-3.41,14.51-8.69A27.53,27.53,0,0,1,229.76,1791.85Z" transform="translate(-160.45 -1724.25)"/><path class="cls-2" d="M220.1,1814a20.51,20.51,0,0,1-7.25,3,20.5,20.5,0,0,1-7.15-3.27s-2.5-6.63-1.76-5.87,9,0.14,9,.14l7.12,1.91v4Z" transform="translate(-160.45 -1724.25)"/><path class="cls-3" d="M234.69,1799.42l18.68,3.45c7.51,2.23,11.76,9.7,11.66,16.64l-0.18,11.66c0,2.61-2.49,4.69-5.47,4.64l-93.59-1.47c-3,0-5.37-2.2-5.33-4.81l0.18-11.66c0.11-6.93,4.6-14.27,12.17-16.26l18.68-2.86,21.5,9.34Z" transform="translate(-160.45 -1724.25)"/><path class="cls-4" d="M183.1,1800a1.74,1.74,0,0,0,.06.18c13.34,22.28,26.61,25.41,28.08,25.69l1.16,0.22a1.76,1.76,0,0,0,.63,0l1.17-.19c1.48-.24,14.84-2.94,28.87-24.79a1.7,1.7,0,0,0,.06-0.17l-8.44-1.56L213,1808.08l-21.5-9.34Z" transform="translate(-160.45 -1724.25)"/><path class="cls-5" d="M197.08,1789.83l-6.93,8.89,10.72,16.37a1.8,1.8,0,0,0,2.76.31l9.37-7.31Z" transform="translate(-160.45 -1724.25)"/><path class="cls-5" d="M229.48,1790.33l6.65,9.11-11.22,16a1.8,1.8,0,0,1-2.77.22l-9.14-7.6Z" transform="translate(-160.45 -1724.25)"/><rect class="cls-4" x="190.52" y="1735.27" width="46.71" height="15" rx="3.42" ry="3.42" transform="translate(-187.65 -1720.69) rotate(-0.89)"/><rect class="cls-4" x="184.87" y="1731.53" width="46.71" height="15" rx="3.42" ry="3.42" transform="translate(-187.59 -1720.78) rotate(-0.89)"/><path class="cls-4" d="M195.19,1750.65h0a13.24,13.24,0,0,1-13.41-13h0a13.24,13.24,0,0,1,13-13.41h0s-2.53,7.53,13.41,13h0A13.24,13.24,0,0,1,195.19,1750.65Z" transform="translate(-160.45 -1724.25)"/><circle class="cls-6" cx="217.49" cy="1776.96" r="14.75" transform="translate(-188.18 -1720.63) rotate(-0.89)"/><circle class="cls-6" cx="210.48" cy="1777.07" r="14.75" transform="translate(-188.18 -1720.74) rotate(-0.89)"/><path class="cls-6" d="M195.41,1750.37H232a0,0,0,0,1,0,0v26.27a1.72,1.72,0,0,1-1.72,1.72h-33a1.86,1.86,0,0,1-1.86-1.86v-26.12A0,0,0,0,1,195.41,1750.37Z" transform="translate(-187.99 -1720.69) rotate(-0.89)"/><rect class="cls-7" x="200.63" y="1755.18" width="8.2" height="1.8" rx="0.41" ry="0.41" transform="translate(-187.86 -1720.83) rotate(-0.89)"/><rect class="cls-7" x="219.34" y="1754.88" width="8.2" height="1.8" rx="0.41" ry="0.41" transform="translate(-187.85 -1720.54) rotate(-0.89)"/><circle class="cls-8" cx="203.9" cy="1765.57" r="2.78" transform="translate(-188.01 -1720.85) rotate(-0.89)"/><circle class="cls-8" cx="222.27" cy="1765.29" r="2.78" transform="translate(-188 -1720.56) rotate(-0.89)"/><path class="cls-9" d="M191.72,1759.39l0.17,10.9a3.2,3.2,0,0,0,3.24,3.14l12.11-.19a3.16,3.16,0,0,0,3.1-3.2l-0.17-10.94Zm16.89,9.44a2.73,2.73,0,0,1-2.68,2.77l-9.71.15a2.73,2.73,0,0,1-2.77-2.68l-0.12-8,15.16-.24Z" transform="translate(-160.45 -1724.25)"/><path class="cls-9" d="M217,1759l0.17,10.9a3.2,3.2,0,0,0,3.24,3.14l12.11-.19a3.16,3.16,0,0,0,3.1-3.2l-0.17-10.94Zm16.89,9.44a2.73,2.73,0,0,1-2.68,2.77l-9.71.15a2.73,2.73,0,0,1-2.77-2.68l-0.12-8,15.16-.24Z" transform="translate(-160.45 -1724.25)"/><rect class="cls-9" x="209.76" y="1762.27" width="7.51" height="1.79" transform="translate(-187.97 -1720.7) rotate(-0.89)"/><path class="cls-10" d="M215.88,1778.79a8.81,8.81,0,0,1-17.31,1.65l14.34-1.83h0Z" transform="translate(-160.45 -1724.25)"/><path class="cls-10" d="M230.35,1779.69a8.81,8.81,0,0,1-15.89,3.32,8.69,8.69,0,0,1-1.55-4.41h0l3,0.19Z" transform="translate(-160.45 -1724.25)"/><polygon class="cls-11" points="57.05 54.02 50.04 54.16 51.4 39.83 54.95 39.78 57.05 54.02"/></svg>