<svg id="Layer_1" data-name="Layer 1" xmlns="http://www.w3.org/2000/svg" xmlns:xlink="http://www.w3.org/1999/xlink" viewBox="0 0 162.95 163.01"><defs><style>.cls-1{fill:#723780;}.cls-2{clip-path:url(#clip-path);}.cls-3{fill:#fff;}.cls-4{fill:#e5e8ec;}.cls-5{fill:#2b3b4e;}.cls-6{fill:#0a4064;}.cls-7{fill:#8b509f;}.cls-8{fill:#fabe9e;}.cls-9{fill:#4794d0;}.cls-10{fill:#388dcb;}.cls-11{fill:#f3b491;}.cls-12{fill:#71503f;}.cls-13{fill:#231f20;}.cls-14{fill:#ea4c25;}.cls-15{fill:#3f230f;}.cls-16{fill:#f19772;}</style><clipPath id="clip-path" transform="translate(-779.36 -857.82)"><path class="cls-1" d="M942.29,939.28a81.13,81.13,0,0,1-6.14,31.06l-150.69-.08A81.47,81.47,0,1,1,942.29,939.28Z"/></clipPath></defs><title>resumePhoto</title><path class="cls-1" d="M936.17,970.43a81.49,81.49,0,0,1-150.69-.08Z" transform="translate(-779.36 -857.82)"/><path class="cls-1" d="M942.29,939.28a81.13,81.13,0,0,1-6.14,31.06l-150.69-.08A81.47,81.47,0,1,1,942.29,939.28Z" transform="translate(-779.36 -857.82)"/><g class="cls-2"><path class="cls-1" d="M942.31,939.36a81.13,81.13,0,0,1-6.14,31.06l-150.69-.08A81.47,81.47,0,1,1,942.31,939.36Z" transform="translate(-779.36 -857.82)"/></g><path class="cls-3" d="M901.16,991.34H823.68a5.4,5.4,0,0,1-5.42-5.42V884.47a5.4,5.4,0,0,1,5.42-5.42h77.47a5.4,5.4,0,0,1,5.42,5.42V985.92A5.32,5.32,0,0,1,901.16,991.34Z" transform="translate(-779.36 -857.82)"/><rect class="cls-4" x="45.17" y="67.02" width="75.91" height="3.13"/><rect class="cls-4" x="45.17" y="76.18" width="75.91" height="3.13"/><rect class="cls-4" x="45.17" y="85.21" width="75.91" height="3.13"/><rect class="cls-4" x="45.17" y="94.25" width="75.91" height="3.13"/><rect class="cls-4" x="45.17" y="103.41" width="75.91" height="3.13"/><polygon class="cls-4" points="86.62 115.46 121.08 115.46 121.08 112.44 45.17 112.44 45.17 115.58 86.62 115.58 86.62 115.46"/><rect class="cls-4" x="45.17" y="121.48" width="41.57" height="3.13"/><path class="cls-5" d="M880.31,916.28l-4,4-4.94-4.94c0.72-.6,1.45-1.2,2-1.81a14.66,14.66,0,0,0,1.81-2Z" transform="translate(-779.36 -857.82)"/><circle class="cls-6" cx="76.62" cy="37.98" r="24.94"/><circle class="cls-3" cx="76.62" cy="37.98" r="20.36"/><path class="cls-3" d="M856.09,905.68h0Z" transform="translate(-779.36 -857.82)"/><path class="cls-3" d="M858.74,906.4l-1.08,2.17H854L853,906.4a10.8,10.8,0,0,1,2.89-.72A9.86,9.86,0,0,1,858.74,906.4Z" transform="translate(-779.36 -857.82)"/><path class="cls-3" d="M853.2,915.92a16.05,16.05,0,0,0,5.54,0l-1-7.47h-3.61Z" transform="translate(-779.36 -857.82)"/><rect class="cls-7" x="887.98" y="916.66" width="10.84" height="33.13" transform="translate(-1177.58 47.25) rotate(-45)"/><path class="cls-8" d="M861,896.3c0,0.52-.37,2.84-4.68,4.71h-0.22c-4.25-2-4.54-4.34-4.53-4.86h0a8,8,0,0,1,.59-2.71c1.18,1.57,2.59,2.63,4.13,2.65s3-1,4.21-2.52A8,8,0,0,1,861,896.3Z" transform="translate(-779.36 -857.82)"/><path class="cls-9" d="M858.23,902.73a2.84,2.84,0,0,1-4.18-.07,7.36,7.36,0,0,1-.51-1.7,10.56,10.56,0,0,0,2.63,0l2.07,0.55v1.17Z" transform="translate(-779.36 -857.82)"/><path class="cls-10" d="M862.46,898.49l5.42,1a5,5,0,0,1,3.38,4.83l-0.05,3.38a1.48,1.48,0,0,1-1.59,1.35l-27.16-.43a1.48,1.48,0,0,1-1.55-1.4l0.05-3.38a5,5,0,0,1,3.53-4.72l5.42-.83,6.24,2.71Z" transform="translate(-779.36 -857.82)"/><path class="cls-6" d="M847.49,898.67a0.51,0.51,0,0,0,0,.05c3.87,6.46,7.72,7.37,8.15,7.45l0.34,0.06h0.18l0.34-.05c0.43-.07,4.31-0.85,8.38-7.19a0.49,0.49,0,0,0,0,0l-2.45-.45L856.17,901l-6.24-2.71Z" transform="translate(-779.36 -857.82)"/><path class="cls-3" d="M851.55,895.71l-2,2.58,3.11,4.75a0.52,0.52,0,0,0,.8.09l2.72-2.12Z" transform="translate(-779.36 -857.82)"/><path class="cls-3" d="M861,895.86l1.93,2.64-3.26,4.65a0.52,0.52,0,0,1-.8.06L856.17,901Z" transform="translate(-779.36 -857.82)"/><rect class="cls-6" x="849.65" y="879.88" width="13.55" height="4.35" rx="2.18" ry="2.18" transform="translate(-793.03 -844.33) rotate(-0.89)"/><rect class="cls-6" x="848.01" y="878.8" width="13.55" height="4.35" rx="2.18" ry="2.18" transform="translate(-793.01 -844.36) rotate(-0.89)"/><path class="cls-6" d="M851,884.34h0a3.84,3.84,0,0,1-3.89-3.77h0a3.84,3.84,0,0,1,3.77-3.89h0s-0.73,2.19,3.89,3.77h0A3.84,3.84,0,0,1,851,884.34Z" transform="translate(-779.36 -857.82)"/><circle class="cls-11" cx="857.47" cy="891.98" r="4.28" transform="translate(-793.18 -844.31) rotate(-0.89)"/><circle class="cls-11" cx="855.44" cy="892.01" r="4.28" transform="translate(-793.18 -844.35) rotate(-0.89)"/><path class="cls-11" d="M851.06,884.26h10.61a0,0,0,0,1,0,0v6.4a1.72,1.72,0,0,1-1.72,1.72h-7a1.86,1.86,0,0,1-1.86-1.86v-6.26a0,0,0,0,1,0,0Z" transform="translate(-793.13 -844.33) rotate(-0.89)"/><rect class="cls-12" x="852.58" y="885.66" width="2.38" height="0.52" rx="0.26" ry="0.26" transform="translate(-793.09 -844.37) rotate(-0.89)"/><rect class="cls-12" x="858.01" y="885.57" width="2.38" height="0.52" rx="0.26" ry="0.26" transform="translate(-793.09 -844.29) rotate(-0.89)"/><circle class="cls-13" cx="853.53" cy="888.67" r="0.81" transform="translate(-793.13 -844.38) rotate(-0.89)"/><circle class="cls-13" cx="858.86" cy="888.59" r="0.81" transform="translate(-793.13 -844.29) rotate(-0.89)"/><path class="cls-14" d="M850,886.88l0,3.16a0.93,0.93,0,0,0,.94.91l3.51-.05a0.92,0.92,0,0,0,.9-0.93l0-3.17Zm4.9,2.74a0.79,0.79,0,0,1-.78.8l-2.82,0a0.79,0.79,0,0,1-.8-0.78l0-2.31,4.4-.07Z" transform="translate(-779.36 -857.82)"/><path class="cls-14" d="M857.34,886.76l0,3.16a0.93,0.93,0,0,0,.94.91l3.51-.05a0.92,0.92,0,0,0,.9-0.93l0-3.17Zm4.9,2.74a0.79,0.79,0,0,1-.78.8l-2.82,0a0.79,0.79,0,0,1-.8-0.78l0-2.31,4.4-.07Z" transform="translate(-779.36 -857.82)"/><rect class="cls-14" x="855.23" y="887.71" width="2.18" height="0.52" transform="translate(-793.12 -844.33) rotate(-0.89)"/><path class="cls-15" d="M857,892.51a2.56,2.56,0,0,1-5,.48l4.16-.53h0Z" transform="translate(-779.36 -857.82)"/><path class="cls-15" d="M861.2,892.77a2.56,2.56,0,0,1-4.61,1,2.52,2.52,0,0,1-.45-1.28h0l0.86,0.05Z" transform="translate(-779.36 -857.82)"/><polygon class="cls-16" points="78.12 34.54 76.09 34.58 76.48 30.42 77.51 30.41 78.12 34.54"/></svg>