<svg id="Layer_1" data-name="Layer 1" xmlns="http://www.w3.org/2000/svg" viewBox="0 0 32.66 32.66"><defs><style>.cls-1{fill:#fff;}</style></defs><title>YT</title><path class="cls-1" d="M176.62,7818l7.33-3.8-7.33-3.82V7818Z" transform="translate(-163.26 -7798.06)"/><path class="cls-1" d="M179.59,7798.06a16.33,16.33,0,1,0,16.33,16.33A16.33,16.33,0,0,0,179.59,7798.06Zm11.13,21.78a2.91,2.91,0,0,1-2.49,2.27,77.33,77.33,0,0,1-8.63.32,77.36,77.36,0,0,1-8.64-.32,2.91,2.91,0,0,1-2.49-2.27,36.95,36.95,0,0,1,0-10.9,2.91,2.91,0,0,1,2.49-2.27,77.44,77.44,0,0,1,8.64-.32,77.41,77.41,0,0,1,8.63.32,2.91,2.91,0,0,1,2.49,2.27A37.27,37.27,0,0,1,190.72,7819.84Z" transform="translate(-163.26 -7798.06)"/></svg>