<svg xmlns="http://www.w3.org/2000/svg" viewBox="0 0 364.25 388.23"><defs><style>.cls-1{isolation:isolate;}.cls-2{fill:#3b2621;}.cls-3{fill:#9e5820;}.cls-4{fill:#e7c99c;}.cls-5,.cls-7{fill:#212120;}.cls-5{opacity:0.2;}.cls-10,.cls-5,.cls-7{mix-blend-mode:multiply;}.cls-6{fill:#f0f8ff;}.cls-7{opacity:0.4;}.cls-8{opacity:0.7;}.cls-9{fill:#cbcecb;}.cls-10{fill:#6d6e70;opacity:0.8;}.cls-11{fill:#c72d2d;}.cls-12,.cls-13{fill:none;stroke-width:2px;}.cls-12{stroke:#f0f8ff;stroke-miterlimit:10;}.cls-13{stroke:#c72d2d;stroke-linecap:round;stroke-linejoin:round;}</style></defs><title>agencyHouse</title><g class="cls-1"><g id="Layer_1" data-name="Layer 1"><rect class="cls-2" y="383.78" width="364.25" height="4.45"/><polygon class="cls-3" points="67.97 200.9 67.97 247.5 67.97 259.77 67.97 286.47 296.29 286.47 296.29 259.76 296.29 247.5 296.29 200.9 67.97 200.9"/><polygon class="cls-3" points="67.97 98.6 67.97 147.03 67.97 159.79 67.97 187.54 296.29 187.54 296.29 159.78 296.29 147.03 296.29 98.6 67.97 98.6"/><path class="cls-2" d="M94.7,0H269.56a5,5,0,0,1,5,5V32a5,5,0,0,1-5,5H94.69a5,5,0,0,1-5-5V5a5,5,0,0,1,5-5Z"/><path class="cls-4" d="M95.79,2.93H268.46a3.18,3.18,0,0,1,3.18,3.18v24.7A3.18,3.18,0,0,1,268.46,34H95.8a3.19,3.19,0,0,1-3.19-3.19V6.11A3.18,3.18,0,0,1,95.79,2.93Z"/><path class="cls-5" d="M436.94,849.34v0.35h-179v-0.35a3.18,3.18,0,0,1,3.18-3.18H433.76A3.18,3.18,0,0,1,436.94,849.34Z" transform="translate(-165.3 -843.23)"/><rect class="cls-2" x="109.57" y="36.92" width="2.95" height="3.02"/><rect class="cls-2" x="251.73" y="36.92" width="2.95" height="3.02"/><rect class="cls-6" x="160.99" y="120.81" width="42.28" height="42.28"/><rect class="cls-6" x="101.8" y="120.81" width="42.28" height="42.28"/><rect class="cls-6" x="220.18" y="120.81" width="42.28" height="42.28"/><rect class="cls-6" x="160.99" y="214.79" width="42.28" height="42.28"/><rect class="cls-6" x="101.8" y="214.79" width="42.28" height="42.28"/><rect class="cls-6" x="220.18" y="214.79" width="42.28" height="42.28"/><rect class="cls-2" x="60.82" y="196.45" width="242.62" height="4.45"/><rect class="cls-2" x="60.82" y="187.54" width="242.62" height="4.45"/><rect class="cls-4" x="63.79" y="191.99" width="236.66" height="4.45"/><rect class="cls-7" x="63.79" y="191.99" width="236.66" height="2.23"/><polygon class="cls-3" points="67.97 297.06 67.97 344.28 67.97 356.73 67.97 383.78 296.29 383.78 296.29 356.72 296.29 344.28 296.29 297.06 67.97 297.06"/><rect class="cls-6" x="160.99" y="312.11" width="42.28" height="42.28"/><rect class="cls-6" x="101.8" y="312.11" width="42.28" height="42.28"/><rect class="cls-4" x="224.04" y="312.11" width="38.42" height="71.67"/><rect class="cls-2" x="60.82" y="293.76" width="242.62" height="4.45"/><rect class="cls-2" x="60.82" y="284.85" width="242.62" height="4.45"/><rect class="cls-4" x="63.79" y="289.3" width="236.66" height="4.45"/><rect class="cls-7" x="63.79" y="289.3" width="236.66" height="2.23"/><rect class="cls-6" x="79.34" y="39.95" width="205.57" height="48.66"/><g class="cls-8"><polygon class="cls-9" points="281.72 54.27 281.72 61.81 259.8 39.89 267.34 39.89 281.72 54.27"/><polygon class="cls-9" points="281.72 63.91 281.72 67.68 253.93 39.89 257.7 39.89 281.72 63.91"/><polygon class="cls-9" points="281.72 81.08 281.72 88.63 274.18 88.63 225.44 39.89 240.53 39.89 281.72 81.08"/></g><rect class="cls-2" x="261.39" y="906.66" width="51.41" height="4.46" transform="translate(1030.68 -221.44) rotate(90)"/><rect class="cls-2" x="301.61" y="906.66" width="51.41" height="4.46" transform="translate(1070.9 -261.66) rotate(90)"/><rect class="cls-2" x="341.83" y="906.66" width="51.41" height="4.45" transform="translate(1111.12 -301.88) rotate(90)"/><rect class="cls-2" x="382.05" y="906.66" width="51.41" height="4.45" transform="translate(1151.34 -342.1) rotate(90)"/><rect class="cls-2" x="422.28" y="906.66" width="51.41" height="4.45" transform="translate(1191.57 -382.33) rotate(90)"/><rect class="cls-2" x="221.16" y="906.66" width="51.41" height="4.46" transform="translate(990.46 -181.22) rotate(90)"/><rect class="cls-2" x="60.82" y="39.95" width="242.62" height="4.45"/><rect class="cls-10" x="67.97" y="100.78" width="228.31" height="3.99"/><rect class="cls-2" x="60.82" y="97.51" width="242.62" height="4.46"/><rect class="cls-2" x="60.82" y="88.61" width="242.62" height="4.46"/><rect class="cls-4" x="63.79" y="93.06" width="236.66" height="4.45"/><rect class="cls-7" x="63.79" y="93.06" width="236.66" height="2.23"/><path class="cls-11" d="M307.1,871.93h-4.56l-1.38-3.73h-7.09l-1.38,3.73h-4.56l7.52-18.64h3.93Zm-9.47-12.88h0l-2.08,5.42h4.21Z" transform="translate(-165.3 -843.23)"/><path class="cls-11" d="M327.91,865.53a8.43,8.43,0,0,1-8.61,6.73,9.38,9.38,0,0,1-9.09-9.65c0-5.35,3.84-9.67,9.09-9.67a8.76,8.76,0,0,1,7.18,3.19l-2.78,3a4.61,4.61,0,0,0-4.15-2.4c-2.62,0-4.75,2.6-4.75,5.83s2.13,5.74,4.75,5.74a3.76,3.76,0,0,0,4-3.59h-4.29v-3.28h8.61v4Z" transform="translate(-165.3 -843.23)"/><path class="cls-11" d="M343.68,857h-6.41v3.7h6.15v3.73h-6.15v3.75h6.41v3.73H333V853.29h10.66V857Z" transform="translate(-165.3 -843.23)"/><path class="cls-11" d="M353.61,871.93h-4.25V853.29h4.25L361,864.86h0V853.29h4.25v18.64h-4.25l-7.41-11.57h0v11.57Z" transform="translate(-165.3 -843.23)"/><path class="cls-11" d="M384.11,866.94l1.81,3.61a10.05,10.05,0,0,1-6.12,1.72c-5.26,0-10.1-4.29-10.1-9.62s4.81-9.69,10.1-9.69a10.06,10.06,0,0,1,6.12,1.72l-1.81,3.62a6.48,6.48,0,0,0-3.66-1.15c-4.27,0-6.14,3-6.14,5.46s1.87,5.49,6.14,5.49A6.48,6.48,0,0,0,384.11,866.94Z" transform="translate(-165.3 -843.23)"/><path class="cls-11" d="M393.85,853.29l3.88,6,3.89-6h5.11l-6.87,10.28v8.36h-4.25v-8.36l-6.87-10.28h5.11Z" transform="translate(-165.3 -843.23)"/><circle class="cls-2" cx="256.24" cy="347.52" r="1.93"/><path class="cls-11" d="M348.9,1021.29a9.08,9.08,0,0,1-6.42,11.11l-70.76,19a9.08,9.08,0,0,1-11.12-6.41l-11.2-41.81A9.07,9.07,0,0,1,255.83,992l70.76-19a9.07,9.07,0,0,1,11.11,6.41Z" transform="translate(-165.3 -843.23)"/><path class="cls-12" d="M348.9,1021.29a9.08,9.08,0,0,1-6.42,11.11l-70.76,19a9.08,9.08,0,0,1-11.12-6.41l-11.2-41.81A9.07,9.07,0,0,1,255.83,992l70.76-19a9.07,9.07,0,0,1,11.11,6.41Z" transform="translate(-165.3 -843.23)"/><polyline class="cls-13" points="87.69 159.94 117.56 108.19 169.31 138.07"/><circle class="cls-2" cx="118.95" cy="113.55" r="4.47"/><path class="cls-6" d="M275.46,1002.81l1,3.73,5.7-1.53-1-3.73a1.81,1.81,0,0,1,0-1.29,1.26,1.26,0,0,1,.84-0.65,1.32,1.32,0,0,1,1.07.13,1.78,1.78,0,0,1,.69,1.11l2.75,10.27a1.78,1.78,0,0,1-.05,1.31,1.29,1.29,0,0,1-.85.66,1.24,1.24,0,0,1-1.06-.15,1.82,1.82,0,0,1-.68-1.11l-1.17-4.38-5.7,1.53,1.17,4.38a1.78,1.78,0,0,1,0,1.31,1.29,1.29,0,0,1-.85.66,1.26,1.26,0,0,1-1.06-.15,1.82,1.82,0,0,1-.68-1.11l-2.75-10.27a1.84,1.84,0,0,1,0-1.29,1.25,1.25,0,0,1,.85-0.66,1.29,1.29,0,0,1,1.07.14A1.76,1.76,0,0,1,275.46,1002.81Z" transform="translate(-165.3 -843.23)"/><path class="cls-6" d="M295.4,998.18l-5.95,1.59,0.86,3.2,5.47-1.47a1.37,1.37,0,0,1,1,0,1,1,0,0,1,.49.64,1,1,0,0,1-.1.8,1.28,1.28,0,0,1-.83.52l-5.48,1.47,1,3.7L298,1007a1.42,1.42,0,0,1,1,0,1,1,0,0,1,.52.69,1,1,0,0,1-.11.83,1.38,1.38,0,0,1-.86.54l-7.18,1.92a1.43,1.43,0,0,1-2.05-1.19l-2.62-9.8a2.3,2.3,0,0,1-.08-1,1.11,1.11,0,0,1,.39-0.67,2.31,2.31,0,0,1,.87-0.41l7-1.87a1.37,1.37,0,0,1,1,0,1,1,0,0,1,.5.65,1,1,0,0,1-.11.82A1.41,1.41,0,0,1,295.4,998.18Z" transform="translate(-165.3 -843.23)"/><path class="cls-6" d="M301.37,995.87l2.55,9.49,5.35-1.44a1.47,1.47,0,0,1,1.07,0,1,1,0,0,1,.55.69,1,1,0,0,1-.13.87,1.49,1.49,0,0,1-.91.56l-6.38,1.71a1.71,1.71,0,0,1-1.34-.05,1.76,1.76,0,0,1-.71-1.13l-2.69-10a1.78,1.78,0,0,1,0-1.3,1.24,1.24,0,0,1,.84-0.65,1.3,1.3,0,0,1,1.07.14A1.77,1.77,0,0,1,301.37,995.87Z" transform="translate(-165.3 -843.23)"/><path class="cls-6" d="M316.6,998.84l-2.42.65,1,3.69a1.8,1.8,0,0,1-.05,1.3,1.36,1.36,0,0,1-1.9.51,1.78,1.78,0,0,1-.68-1.09l-2.69-10a1.68,1.68,0,0,1,.07-1.35,1.88,1.88,0,0,1,1.17-.72l3.39-.91a9,9,0,0,1,2.37-.39,3.54,3.54,0,0,1,1.59.37,3.34,3.34,0,0,1,1.22,1,4.57,4.57,0,0,1,.75,1.6,3.83,3.83,0,0,1-.42,3.34A5.78,5.78,0,0,1,316.6,998.84Zm-2.24-5.8-1.78.47,1.07,4,1.78-.48a5.51,5.51,0,0,0,1.51-.61,1.87,1.87,0,0,0,.78-0.9,2,2,0,0,0,0-1.25,2.06,2.06,0,0,0-.88-1.27A3.47,3.47,0,0,0,314.36,993Z" transform="translate(-165.3 -843.23)"/><path class="cls-6" d="M267.23,1025.16l7.14,6.32-2.08-7.75a1.76,1.76,0,0,1,0-1.22,1.15,1.15,0,0,1,.77-0.61,1.19,1.19,0,0,1,1,.14,1.74,1.74,0,0,1,.63,1l2.75,10.25c0.31,1.14,0,1.84-1,2.09a1.91,1.91,0,0,1-.67.07,1.71,1.71,0,0,1-.62-0.18,3.53,3.53,0,0,1-.6-0.39l-0.59-.5-7-6.27,2,7.64a1.68,1.68,0,0,1,0,1.22,1.27,1.27,0,0,1-1.79.48,1.73,1.73,0,0,1-.64-1l-2.69-10.06a2.92,2.92,0,0,1-.13-1,1.44,1.44,0,0,1,.39-0.8,1.58,1.58,0,0,1,.77-0.49,1.44,1.44,0,0,1,1.17.14,3.87,3.87,0,0,1,.53.4Z" transform="translate(-165.3 -843.23)"/><path class="cls-6" d="M286.39,1020.75l-5.95,1.59,0.86,3.2,5.48-1.47a1.32,1.32,0,0,1,1,0,0.94,0.94,0,0,1,.49.63,1,1,0,0,1-.1.8,1.3,1.3,0,0,1-.83.52l-5.48,1.47,1,3.71,6.15-1.65a1.38,1.38,0,0,1,1,0,1,1,0,0,1,.52.69,1,1,0,0,1-.12.83,1.38,1.38,0,0,1-.86.54l-7.18,1.92a1.44,1.44,0,0,1-2.05-1.19l-2.62-9.8a2.19,2.19,0,0,1-.08-1A1.08,1.08,0,0,1,278,1021a2.28,2.28,0,0,1,.88-0.41l7-1.87a1.41,1.41,0,0,1,1,0,1,1,0,0,1,.5.65,1,1,0,0,1-.11.82A1.39,1.39,0,0,1,286.39,1020.75Z" transform="translate(-165.3 -843.23)"/><path class="cls-6" d="M298.54,1017.5l-5.95,1.6,0.86,3.2,5.48-1.47a1.34,1.34,0,0,1,1,0,1,1,0,0,1,.49.64,1,1,0,0,1-.1.8,1.3,1.3,0,0,1-.83.52l-5.48,1.47,1,3.71,6.15-1.65a1.37,1.37,0,0,1,1,0,1,1,0,0,1,.52.68,1,1,0,0,1-.12.84,1.38,1.38,0,0,1-.86.54l-7.17,1.92a1.43,1.43,0,0,1-2.05-1.19l-2.63-9.8a2.27,2.27,0,0,1-.08-1,1.08,1.08,0,0,1,.38-0.67,2.31,2.31,0,0,1,.88-0.41l7-1.87a1.38,1.38,0,0,1,1,0,1,1,0,0,1,.5.65,1,1,0,0,1-.11.83A1.39,1.39,0,0,1,298.54,1017.5Z" transform="translate(-165.3 -843.23)"/><path class="cls-6" d="M303.18,1014.07l3.44-.92a9.55,9.55,0,0,1,2.37-.37,4.35,4.35,0,0,1,2,.47,6.82,6.82,0,0,1,3.45,4.75,10.65,10.65,0,0,1,.37,2.2,6.44,6.44,0,0,1-.16,1.92,5.59,5.59,0,0,1-.72,1.68,4.63,4.63,0,0,1-.95,1.07,5.39,5.39,0,0,1-1.23.76,10.44,10.44,0,0,1-1.58.55l-3.44.92a2.28,2.28,0,0,1-1.14.07,1.07,1.07,0,0,1-.64-0.49,4,4,0,0,1-.39-1l-2.56-9.56A1.43,1.43,0,0,1,303.18,1014.07Zm1.58,1.81,2.37,8.85,2-.54a10.11,10.11,0,0,0,1-.31,3.12,3.12,0,0,0,.73-0.39,2.2,2.2,0,0,0,.59-0.58q1-1.47.29-4.21a5.88,5.88,0,0,0-1.36-2.74,2.66,2.66,0,0,0-1.76-.84,7.31,7.31,0,0,0-2.13.29Z" transform="translate(-165.3 -843.23)"/><path class="cls-6" d="M324.16,1010.63l-5.94,1.59,0.86,3.2,5.48-1.47a1.33,1.33,0,0,1,1,0,0.94,0.94,0,0,1,.49.63,1,1,0,0,1-.1.8,1.32,1.32,0,0,1-.83.52l-5.48,1.47,1,3.71,6.15-1.65a1.38,1.38,0,0,1,1,0,1,1,0,0,1,.52.68,1,1,0,0,1-.12.84,1.38,1.38,0,0,1-.86.54l-7.17,1.92a1.43,1.43,0,0,1-2.05-1.19l-2.63-9.8a2.29,2.29,0,0,1-.08-1,1.05,1.05,0,0,1,.39-0.67,2.29,2.29,0,0,1,.87-0.41l7-1.87a1.39,1.39,0,0,1,1,0,1.07,1.07,0,0,1,.4,1.47A1.37,1.37,0,0,1,324.16,1010.63Z" transform="translate(-165.3 -843.23)"/><path class="cls-6" d="M328.81,1007.21l3.44-.92a9.52,9.52,0,0,1,2.37-.37,4.47,4.47,0,0,1,2,.46,6.85,6.85,0,0,1,3.46,4.76,11.11,11.11,0,0,1,.37,2.2,6.72,6.72,0,0,1-.16,1.92,5.66,5.66,0,0,1-.72,1.68,4.7,4.7,0,0,1-.94,1.06,5.24,5.24,0,0,1-1.24.76,10.32,10.32,0,0,1-1.58.55l-3.44.92a2.25,2.25,0,0,1-1.14.07,1.06,1.06,0,0,1-.64-0.49,4.12,4.12,0,0,1-.39-1l-2.56-9.56a1.76,1.76,0,0,1,.05-1.34A1.74,1.74,0,0,1,328.81,1007.21Zm1.58,1.81,2.38,8.84,2-.53c0.44-.12.78-0.22,1-0.31a3.28,3.28,0,0,0,.73-0.39,2.21,2.21,0,0,0,.58-0.58q1-1.48.29-4.21a5.89,5.89,0,0,0-1.35-2.74,2.69,2.69,0,0,0-1.76-.84,7.22,7.22,0,0,0-2.14.29Z" transform="translate(-165.3 -843.23)"/></g></g></svg>