<svg id="Layer_1" data-name="Layer 1" xmlns="http://www.w3.org/2000/svg" viewBox="0 0 137 105"><defs><style>.cls-1{fill:#965ba5;}.cls-2{fill:#9e64a8;}.cls-3{fill:#e6e7e8;}.cls-4{fill:#fff;}</style></defs><title>brainPhoto</title><path class="cls-1" d="M454.44,1817c0.77,0.37,22.25,10.46,32.85-7.13,10.79-17.91,2.85-17.23,2.68-18.69s15.72-18.11-3.66-30.62c0,0-23.55-53.73-84.15-27.48,0,0-18.65-2.7-27.72,17.66,0,0-22.57,8.34-13.25,35.08s31.65,14.72,31.65,14.72c3.06,16.66,22.41,20.74,36.31,13.49,0,0,4.66,5.15,10.3,3.19,0.2-.78,1.74-0.2.72-2.83,1.42-2.1,4.66-3.22,10.45-.56,0.3,0.25.84,0.68,0.76,0.63Z" transform="translate(-358.93 -1725.83)"/><path class="cls-2" d="M376.23,1751.34c-0.26.44-14.84,4.09-15.86,18.5-1.58,22.17,14,37.85,32.8,28.28,3.92,15.75,25.29,21.69,36.9,12.4,0,0,3,7.59,10.1,3.86l0.34,0.38c1.7,0,6.18,2.77,10.1-.93l0.77,0.63a5.87,5.87,0,0,1,1.74,0c24,13.76,39.53-9.92,36.9-19.4-0.37-1.33-1-1.56-2.12-2.23a4.27,4.27,0,0,1,1.18-3.57c6.8-8,10.29-20.51-3.89-27.46-14.36-31.79-49.39-45.53-84-27.06-20.34-1.21-24.69,16.19-24.91,16.57h0Z" transform="translate(-358.93 -1725.83)"/><path class="cls-1" d="M413.06,1739.59a1.3,1.3,0,0,1-.68-2.5s10.16-2.85,12.5,5.4a7.64,7.64,0,0,1,6.21-.65c-0.32-2.81.49-6.7,6.71-8.3a1.3,1.3,0,0,1,.64,2.51c-7.12,1.83-4.12,7.83-4.11,7.85h0a1.3,1.3,0,0,1-2,1.58,5.42,5.42,0,0,0-7-.19c0,4.83-6.55,5.92-6.57,5.92h0a1.3,1.3,0,0,1-1.1-.34c-7.48-7-15.75,1.9-15.77,1.93h0a1.3,1.3,0,0,1-1.6.23c-7.41-4.34-1-17.28.47-20.07,0.9,0,1.42.11,1.42,0.11l1.2-.5a1.29,1.29,0,0,1-.07,1.14s-7.06,12.28-2.49,16.52c2.53-2.29,10.46-8.3,18.1-1.7,1.25-.32,4.07-1.32,3.79-3.65v-0.06c-0.84-7.67-9.6-5.21-9.62-5.21h0ZM490.93,1792h0a1.81,1.81,0,0,1-1-.87,6.85,6.85,0,0,1,1.09-2c-0.84-4-4.06-3.89-5.82-3.5a13.31,13.31,0,0,1-.46-9.48l0.05-.15c1.82-5.18,10.26-3.08,10.29-3.07a1.3,1.3,0,0,0,.59,0,14.52,14.52,0,0,0-.75-2.69c-2.29-.41-9.06-1.18-11.88,3.41a5.32,5.32,0,0,0-4.5-.63c-1.71-6.7-8-4.24-8-4.23a1.3,1.3,0,0,0,.91,2.43s3.66-1.44,4.65,2.87c-2.27.63-6.85,2.51-7.5,7.46a1.3,1.3,0,1,0,2.57.34c0.58-4.42,6-5.42,6.55-5.51a1.29,1.29,0,0,0,.72-0.33,2.79,2.79,0,0,1,3.59,0,15.93,15.93,0,0,0,.16,8.88,10.32,10.32,0,0,0-10.5,3.53,1.34,1.34,0,0,0-.14.2c-3.63,6.36-11,3.89-13.32,2.91-0.23-10.41-12-8.27-12.07-8.26a1.3,1.3,0,1,0,.45,2.56s8.44-1.53,9,5.35a13.66,13.66,0,0,0-11.86,10.34,1.3,1.3,0,0,0,2.54.52s1.51-7.64,10.38-8.36c2,0.9,12,5,17.08-3.71,0.41-.52,3.92-4.69,10.15-1.73a1.3,1.3,0,0,0,1.09.05h0s3.55-1.49,3.61,2.79a1.3,1.3,0,0,0,1.31,1.28,1.28,1.28,0,0,0,.94-0.42h0Zm-4.16-31.18h0a1.3,1.3,0,0,1-.23.14,11.26,11.26,0,0,0-4.52,4.86,1.3,1.3,0,1,1-2.35-1.12,14,14,0,0,1,5.71-6.06c0.62,1.18.92,1.87,0.92,1.87l0.46,0.31h0ZM375.3,1748.91h0q-0.44.87-.86,1.8s-0.45.17-1.19,0.52a1.38,1.38,0,0,0,.1.19,1.3,1.3,0,0,0,1.8.38,4.41,4.41,0,0,1,1.08-.47,10.42,10.42,0,0,1,5-.2,7.62,7.62,0,0,1,4.94,3.34,9.58,9.58,0,0,1,.67,1.22c-2.42.54-6.58,2.2-7.2,7.34a1.3,1.3,0,1,0,2.58.3c0.55-4.55,5.23-5.2,6.25-5.29a6.62,6.62,0,0,1,4.81,5.5,1.3,1.3,0,1,0,2.58-.22,9.25,9.25,0,0,0-6.22-7.62,12.5,12.5,0,0,0-1.3-2.66,10.16,10.16,0,0,0-6.58-4.46,13.11,13.11,0,0,0-6.31.27l-0.19.06h0ZM366,1795.14h0a23.36,23.36,0,0,0,2,2.4,1.3,1.3,0,0,0,.48-1c0.11-3.84,1-6.9,2.7-9a9.1,9.1,0,0,1,5.47-3c0.18,3.23,1.32,5.36,2.85,6.59l0.08,0.06a5.84,5.84,0,0,0,3,1.19,6.56,6.56,0,0,0,3.09-.48,7.26,7.26,0,0,0,4.31-5.17,1.3,1.3,0,0,0-2.54-.55,4.65,4.65,0,0,1-2.75,3.32,4,4,0,0,1-1.87.3,3.23,3.23,0,0,1-1.68-.66l-0.06,0c-1-.81-1.76-2.36-1.87-4.82h0c3.09-.09,4.09-0.85,4-2.29a4.77,4.77,0,0,0-1.11-2.41c-1.26-1.85-3.32-4.86.22-9.13a1.3,1.3,0,0,0-2-1.66c-4.79,5.77-2.05,9.78-.37,12.25,0.37,0.54.67,1,.67,1,0,0.28-.39-0.41-1.53-0.37-4.54.13-7.8,1.6-10,4.21-1.92,2.28-2.94,5.4-3.23,9.21h0Zm25.7,5.92h0c0.75-.32,1.18-0.55,1.18-0.55,0.08,0.43.17,0.85,0.27,1.27h0.06a1.3,1.3,0,0,0,.93-1.59c-0.64-2.4-.27-7.27,2.26-11.72a16.94,16.94,0,0,1,8.68-7.55,1.3,1.3,0,0,0,.82-0.78c0.35-.74,3.24-6.5,7.34-5.54,1,0.38,8.48,3.07,11.38-1.45,3,0.32,11.85.48,13.23-8.78,3.74-.48,15.84-2.94,16.81-14.89a11,11,0,0,0,11.29-5.35,1.3,1.3,0,1,0-2.24-1.32,8.61,8.61,0,0,1-9.3,4c-3.51-9.21-11.65-4.37-11.68-4.36a1.3,1.3,0,1,0,1.29,2.25s5.7-3.39,8.09,3.42c-0.14,10.88-11,13.18-14.44,13.64-3.15-11.47-12.63-5.29-12.66-5.28a1.3,1.3,0,1,0,1.38,2.2s6.89-4.49,9,4.57c-0.85,8.94-10.54,7.32-11.19,7.2a1.3,1.3,0,0,0-1.47.76c-1.52,3.58-7.88,1.2-8.55.94l-0.23-.08a6.92,6.92,0,0,0-1-.17c-2-7.48,2.47-7.44,2.48-7.44a1.3,1.3,0,1,0,0-2.59s-7.6,0-5.05,10.31c-3.49,1.11-5.79,4.92-6.56,6.37-4.76,1.12-5.59-2.07-5.59-2.08h0a1.3,1.3,0,0,0-1.28-1c-3.26.09-3.26-3.43-3.26-3.44a1.3,1.3,0,0,0-2.59,0s0,5.5,5,6a6,6,0,0,0,3.42,3,19.67,19.67,0,0,0-5.35,6.12c-2.89,5.09-3.27,10.8-2.51,13.66a1.31,1.31,0,0,0,.08.22h0ZM428,1814.58h0a1.3,1.3,0,0,1,.24-1.49c0.86-.86,1.62-3.81,1.44-7a12,12,0,0,0-.67-3.39,7.38,7.38,0,0,0-1.68-2.72h0c-1.3-1.3-3.29-2.11-6.2-2H421l-0.21,0c-0.59-.07-5.78-0.53-5.44,3.57a1.3,1.3,0,1,1-2.59.21c-0.47-5.64,4.41-6.41,6.94-6.43v-4.62c-7.86.4-5.42-8.82-5.41-8.85a1.3,1.3,0,0,1,2.51.64s-1.71,6.48,4,5.47a1.3,1.3,0,0,1,.66.06c0.86,0.24,9.55,2.48,13-4.91-3.21-2.34-6.89,0-6.9,0a1.3,1.3,0,1,1-1.38-2.2s10.55-6.79,14.35,7.72a1.3,1.3,0,0,1-2.51.65,15,15,0,0,0-1.68-4.14c-3.65,6.54-10.76,6.22-14,5.68v4.51a9.76,9.76,0,0,1,6.9,2.72h0a10,10,0,0,1,2.29,3.68,14.61,14.61,0,0,1,.82,4.12c0.22,3.82-.91,7.62-2.16,8.91a10.41,10.41,0,0,1-.95-0.89c-0.38.2-.77,0.39-1.16,0.57h0Zm14.41-37.78h0a1.3,1.3,0,1,1-1.7-2s3.76-3.33,8.09-2.94a10.93,10.93,0,0,1,.7-6.2,10.5,10.5,0,0,1,5.32-5.48,10.91,10.91,0,0,1,1.37-.52c3.16-1,5.19-.11,6.46,1.14a11.78,11.78,0,0,1,5.85-7.75c6.79-3.47,11.64,2.82,11.66,2.84a1.3,1.3,0,1,1-2,1.6s-3.56-4.61-8.43-2.12c-3.84,2-4.73,6.26-4.94,8.28,3.53,1.23,2.28,7.88,2.28,7.9a1.3,1.3,0,0,1-2.56-.45s0.93-5.12-1-5.05a1.3,1.3,0,0,1-1.31-1h0a3.8,3.8,0,0,0-5.17-2.87,8.37,8.37,0,0,0-1,.39,7.92,7.92,0,0,0-4,4.14,8.27,8.27,0,0,0-.32,5.62c0,0.15.09,0.29,0.15,0.43a12.46,12.46,0,0,1,5,5.7,1.3,1.3,0,1,1-2.32,1.17C449.7,1770.34,442.41,1776.79,442.39,1776.8Zm19.83,30.4h0a1.3,1.3,0,1,1-2.27-1.26s4.8-8.83,11.54-5a11.2,11.2,0,0,1,8.62-3.68c6.76,0.31,5.94,5.91,5.94,5.93a1.3,1.3,0,0,1-2.57-.34s0.42-2.82-3.48-3a8.53,8.53,0,0,0-6.55,2.78c4.32,5.66-2,11.48-2,11.5a1.3,1.3,0,1,1-1.78-1.89s5-4.62,1.28-8.61c-4.84-3.44-8.66,3.59-8.67,3.61h0Z" transform="translate(-358.93 -1725.83)"/><path class="cls-3" d="M440.17,1814.37c0.85,1.87-.52,2.05-0.72,2.83,1.27,1.2,6.77,4.16,10.79,7.6,4.87,4.17,4.13,5.83,7.36,6,1.65,0.1,5.1-.63,4.82-3-0.51-4.18-8-10.9-8-10.9h0l-3.06-2.52C447.75,1817,444,1816.23,440.17,1814.37Z" transform="translate(-358.93 -1725.83)"/><path class="cls-4" d="M440.17,1814.37c2.17,2.37,13.29,11.53,15.54,14.1s6.39,0,5.32-2.86-9.65-11.17-9.65-11.17-0.46-.38-0.76-0.63c-4.86,2.74-8.06.64-10.45,0.56h0Z" transform="translate(-358.93 -1725.83)"/></svg>