<svg id="Layer_1" data-name="Layer 1" xmlns="http://www.w3.org/2000/svg" viewBox="0 0 126.68 61.41"><defs><style>.cls-1{fill:#3596d2;}</style></defs><title>footerLogo</title><path class="cls-1" d="M687.38,7877.47a0.37,0.37,0,0,0-.33.11,11.54,11.54,0,0,1-8.38,1.43,6.88,6.88,0,0,1-4.26-2.66c-0.14-.19-0.3-0.37-0.45-0.55a0.26,0.26,0,0,0-.09,0c-0.21.25-.41,0.5-0.64,0.75a8.63,8.63,0,0,1-4.6,2.42,11.7,11.7,0,0,1-4.81.12,7,7,0,0,1-4.24-2.43l-0.68-.83a0.6,0.6,0,0,0-.19.1,7.87,7.87,0,0,1-4.27,2.81,11.75,11.75,0,0,1-5.71.33,7.13,7.13,0,0,1-5.55-4.72,14.41,14.41,0,0,1-.86-5c0-3.07,0-6.14,0-9.2,0-.21,0-0.43,0-0.64,0-.54,0-0.54-0.57-0.55H640c-0.51,0-.53,0-0.54-0.52q0-1,0-2.07c0-.49,0-0.51.54-0.52s1,0,1.57,0c0.71,0,.71,0,0.72-0.7,0-2.52,0-5,0-7.56,0-1.3-.2-1.12,1.13-1.13h7.78c0.67,0,.67,0,0.67.66q0,3.21,0,6.42c0,0.59,0,1.19,0,1.78s0,0.52.53,0.53c0.78,0,1.57,0,2.35,0,0.52,0,.53,0,0.54.51,0,0.71,0,1.43,0,2.14a0.38,0.38,0,0,1-.46.46q-1.21,0-2.43,0c-0.51,0-.54,0-0.54.52q0,5.42,0,10.84a6.72,6.72,0,0,0,.11,1.13,1.39,1.39,0,0,0,1.68,1.24,2.77,2.77,0,0,0,1.67-.88,6.91,6.91,0,0,0,1.91-4.13,9.75,9.75,0,0,0,0-1.21q0-11.2,0-22.4c0-1-.06-0.88.89-0.88h8.35a0.32,0.32,0,0,1,.38.39c0,0.24,0,.48,0,0.71q0,12.49,0,25c0,0.62,0,1.24.06,1.85a1.56,1.56,0,0,0,2.44,1.38,4.12,4.12,0,0,0,1.79-1.69,7.72,7.72,0,0,0,1.17-4.13c0-3.23,0-6.47,0-9.7,0-.17,0-0.33,0-0.5,0-.62,0-0.63.64-0.63h8.35c0.6,0,.61,0,0.61.65q0,6.67,0,13.34a8.74,8.74,0,0,0,.13,1.63,1.38,1.38,0,0,0,1.63,1.22,2.68,2.68,0,0,0,1.63-.8,6.82,6.82,0,0,0,2-4.3,16.86,16.86,0,0,0,.06-1.78q0-4.49,0-9c0-.19,0-0.38,0-0.57a0.35,0.35,0,0,1,.44-0.41h8.92a0.28,0.28,0,0,1,.31.3c0,0.17,0,.33,0,0.5q0,15.27,0,30.54a11.75,11.75,0,0,1-1.11,5.11,8.61,8.61,0,0,1-5.77,4.82,13.51,13.51,0,0,1-7,0,8.62,8.62,0,0,1-6-5.15,11.64,11.64,0,0,1-1-4.57c0-2,0-3.95,0-5.92,0-.69,0-0.7.72-0.7h8.06c0.75,0,.75,0,0.75.73,0,1.12,0,2.24,0,3.35a8.33,8.33,0,0,0,.11,1.35,3.45,3.45,0,0,0,.11.48,0.7,0.7,0,0,0,.58.64,0.65,0.65,0,0,0,.6-0.61,3.68,3.68,0,0,0,.15-0.69c0-.4.06-0.81,0.06-1.21q0-3.32,0-6.64A1,1,0,0,0,687.38,7877.47Z" transform="translate(-570.47 -7836.13)"/><path class="cls-1" d="M619.38,7877.41a2.82,2.82,0,0,0-.29.13,11.3,11.3,0,0,1-8.3,1.48,7.11,7.11,0,0,1-5.69-5.21,16.47,16.47,0,0,1-.71-4.93c0-4.16,0-8.32,0-12.49,0-.62,0-0.63.64-0.63h8.28c0.69,0,.7,0,0.7.72q0,6.64,0,13.27a11.09,11.09,0,0,0,.08,1.49,1.44,1.44,0,0,0,1.93,1.32,2.81,2.81,0,0,0,1.41-.8,6.8,6.8,0,0,0,1.92-4,11.42,11.42,0,0,0,.09-1.64c0-2.12,0-4.23,0-6.35,0-.17,0-0.33,0-0.5a0.38,0.38,0,0,0-.48-0.45h-2.35c-1.14,0-1,.09-1-1,0-.45,0-0.9,0-1.36,0-.76,0-0.76.79-0.76h2.35c0.66,0,.67,0,0.67-0.68q0-4.35,0-8.7a11.35,11.35,0,0,1,1-4.71,8.63,8.63,0,0,1,5.71-5,13.44,13.44,0,0,1,6.7-.2,8.85,8.85,0,0,1,6.89,6.51,12.17,12.17,0,0,1,.53,3.51c0,1.93,0,3.85,0,5.78,0,0.66,0,.67-0.67.67h-8.2c-0.67,0-.68,0-0.68-0.66,0-1.14,0-2.28,0-3.42a13.1,13.1,0,0,0-.09-1.35,2.75,2.75,0,0,0-.18-0.69,0.58,0.58,0,0,0-.5-0.44,0.56,0.56,0,0,0-.52.41,2.12,2.12,0,0,0-.21.75c0,0.36-.07.71-0.07,1.07q0,3.21,0,6.42c0,0.71,0,.71.71,0.71h4.78c1,0,.86,0,0.87.9,0,0.55,0,1.09,0,1.64s0,0.56-.56.56h-4.57c-1.42,0-1.23-.18-1.23,1.26q0,16.16,0,32.32c0,1.15.08,1-1,1H619.8a0.31,0.31,0,0,1-.34-0.35c0-.21,0-0.43,0-0.64q0-7.06,0-14.13A2.83,2.83,0,0,0,619.38,7877.41Z" transform="translate(-570.47 -7836.13)"/><path class="cls-1" d="M595.58,7847.77a0.76,0.76,0,0,1-.19-0.1,9,9,0,0,0-6-2.36,12.48,12.48,0,0,0-3.55.25,5,5,0,0,0-2.43,1.28,3,3,0,0,0,.82,5.05,5.55,5.55,0,0,0,1.7.51c2.26,0.34,4.53.57,6.77,1a16.11,16.11,0,0,1,4,1.28,9.63,9.63,0,0,1,5.38,6.3,16.12,16.12,0,0,1,.34,7.83,12,12,0,0,1-6.39,8.23,18.25,18.25,0,0,1-7.56,2.14,30.86,30.86,0,0,1-10.05-.79,17,17,0,0,1-7.32-4c-0.16-.15-0.3-0.31-0.47-0.44s-0.23-.43,0-0.63l0.1-.1,5.8-5.8c0.45-.45.42-0.46,0.9,0a8.91,8.91,0,0,0,3.12,1.69,18,18,0,0,0,8,.73,6,6,0,0,0,2.29-.76,3.62,3.62,0,0,0,.88-5.24,3.34,3.34,0,0,0-1.7-1,26.86,26.86,0,0,0-3.44-.57,44.65,44.65,0,0,1-5.75-1,14.24,14.24,0,0,1-3.89-1.73,9.32,9.32,0,0,1-3.88-5,14.73,14.73,0,0,1-.12-9,12.41,12.41,0,0,1,7.35-8,17,17,0,0,1,5.73-1.34,24.82,24.82,0,0,1,9.64,1.1,16.09,16.09,0,0,1,6,3.62c0.37,0.35.37,0.37,0,.72l-6,6A1.57,1.57,0,0,1,595.58,7847.77Z" transform="translate(-570.47 -7836.13)"/><rect class="cls-1" x="33.91" y="16.45" width="9.64" height="1.23" rx="0.11" ry="0.11"/><rect class="cls-1" x="34.43" y="14.37" width="9.64" height="1.23" rx="0.11" ry="0.11"/><rect class="cls-1" x="34.43" y="9.96" width="9.64" height="1.23" rx="0.11" ry="0.11"/><rect class="cls-1" x="33.14" y="12.3" width="9.64" height="1.23" rx="0.11" ry="0.11"/></svg>