<svg xmlns="http://www.w3.org/2000/svg" viewBox="0 0 1262.58 560.55"><defs><style>.cls-1{isolation:isolate;}.cls-2,.cls-3,.cls-5{fill:#25e0ef;}.cls-2{opacity:0.3;}.cls-3,.cls-4{opacity:0.1;}.cls-6{fill:#fbdec6;}.cls-7{fill:#533465;}.cls-8{fill:#3c53c8;}.cls-9{fill:#6d6e70;opacity:0.8;mix-blend-mode:multiply;}.cls-10{fill:#f2f2f2;}.cls-11{fill:#e8c6af;}.cls-12{fill:#e4b99b;}.cls-13{fill:#fff;}.cls-14{fill:#4b2c11;}.cls-15{fill:#331d0f;}.cls-16{fill:#d8966a;}.cls-17{opacity:0.2;}.cls-18{fill:#e3fefe;}</style></defs><title>glassmanbg</title><g class="cls-1"><g id="Layer_1" data-name="Layer 1"><g id="polupooker_in_gllass_1_box" data-name="polupooker in gllass 1 box"><rect class="cls-2" y="511.41" width="1262.58" height="14.73"/><rect class="cls-3" y="526.19" width="1262.58" height="34.37"/><g class="cls-4"><rect class="cls-5" x="1050.98" width="6.87" height="45.7"/><path class="cls-5" d="M1036.41,104.39V67a20.23,20.23,0,0,1,20.23-20.23h0A20.23,20.23,0,0,1,1076.88,67v37.37" transform="translate(-2.23 -1.08)"/></g><g class="cls-4"><rect class="cls-5" x="977.73" width="6.87" height="92.28"/><path class="cls-5" d="M963.16,151V113.6A20.23,20.23,0,0,1,983.4,93.36h0a20.23,20.23,0,0,1,20.23,20.23V151" transform="translate(-2.23 -1.08)"/></g><rect class="cls-6" x="806.39" y="294.16" width="7.79" height="61.26"/><rect class="cls-6" x="919.55" y="292.17" width="7.8" height="63.26"/><rect class="cls-7" x="845.3" y="299.42" width="15.59" height="212.25"/><rect class="cls-7" x="873.97" y="299.42" width="15.59" height="212.25"/><path class="cls-5" d="M830.8,263.66s-14.29,2.2-20,20a53.1,53.1,0,0,0-2.13,10.66L819,294.53l0.17-1.35c2.53-19.71,15-19.45,15-19.45l0.09,24.1h70.72l0.08-24.1s12.44-.25,15,19.45l0.17,1.35,10.34-.16a53,53,0,0,0-2.14-10.66c-5.75-17.85-20-20-20-20V253.4H830.8v10.26Z" transform="translate(-2.23 -1.08)"/><polygon class="cls-8" points="860.89 511.16 860.89 525.41 808.76 525.41 845.3 511.16 860.89 511.16"/><polygon class="cls-8" points="873.97 511.16 873.97 525.41 926.11 525.41 889.56 511.16 873.97 511.16"/><rect class="cls-7" x="801.9" y="291.42" width="14.98" height="8.11"/><rect class="cls-7" x="915.96" y="291.42" width="14.98" height="8.11"/><rect class="cls-5" x="683.5" y="339.88" width="364.7" height="17.74"/><polygon class="cls-8" points="1034.16 366.33 697.53 366.33 683.5 357.62 1048.2 357.62 1034.16 366.33"/><rect class="cls-8" x="697.89" y="366.33" width="20.34" height="159.44"/><rect class="cls-8" x="1013.23" y="366.33" width="20.34" height="159.44"/><rect class="cls-9" x="1013.23" y="366.33" width="20.34" height="6.67"/><rect class="cls-9" x="697.89" y="366.33" width="20.34" height="6.67"/><path class="cls-7" d="M744.57,318.2h0V316a1.8,1.8,0,0,0-1.8-1.8H727.66a1.8,1.8,0,0,0-1.8,1.8v23.12a1.8,1.8,0,0,0,1.8,1.8h15.11a1.81,1.81,0,0,0,1.8-1.8v-4.34h0A8.3,8.3,0,0,0,744.57,318.2Zm0,14.61h0V320.2h0A6.31,6.31,0,0,1,744.57,332.81Z" transform="translate(-2.23 -1.08)"/><rect class="cls-8" x="965.56" y="305.03" width="3.52" height="32.38" transform="translate(-46.33 193.97) rotate(-11.26)"/><polygon class="cls-6" points="960.18 304.65 961.27 301.29 963.64 303.91 960.18 304.65"/><polygon class="cls-7" points="961.97 302.06 961.27 301.29 960.9 302.44 961.97 302.06"/><rect class="cls-5" x="978.01" y="305.37" width="3.52" height="32.38" transform="translate(149.23 -293.73) rotate(18.39)"/><polygon class="cls-6" points="980.94 304.59 983.55 302.2 984.31 305.66 980.94 304.59"/><polygon class="cls-7" points="983.77 303.22 983.55 302.2 982.65 303.02 983.77 303.22"/><rect class="cls-7" x="960.56" y="318.45" width="22.79" height="21.43" rx="0.61" ry="0.61"/><rect class="cls-8" x="805.17" y="264.92" width="122.47" height="74.97" rx="4.72" ry="4.72"/><path class="cls-7" d="M807.4,334.3v1.95a4.72,4.72,0,0,0,4.72,4.72h113a4.72,4.72,0,0,0,4.72-4.72V334.3H807.4Z" transform="translate(-2.23 -1.08)"/><circle class="cls-10" cx="866.4" cy="302.4" r="7.43"/><rect class="cls-9" x="828.57" y="256.17" width="77.49" height="3.92"/><path class="cls-6" d="M930.28,244.89a13.38,13.38,0,0,1-13.38,13.39H818.36A13.39,13.39,0,0,1,805,244.89V163.48a13.39,13.39,0,0,1,13.39-13.39h98.53a13.38,13.38,0,0,1,13.38,13.39v81.41Z" transform="translate(-2.23 -1.08)"/><rect class="cls-11" x="850.66" y="157.28" width="2.67" height="79.82"/><rect class="cls-12" x="852" y="157.28" width="25.74" height="79.82"/><path class="cls-7" d="M929.75,237.69a11,11,0,0,1-11-11V194.41a2.43,2.43,0,0,0-2.43-2.43H817.84a2.44,2.44,0,0,0-2.43,2.43v32.32a11,11,0,1,1-21.91,0V162.85a24.37,24.37,0,0,1,24.35-24.34h98.53a24.37,24.37,0,0,1,24.34,24.34v63.88A11,11,0,0,1,929.75,237.69Z" transform="translate(-2.23 -1.08)"/><path class="cls-13" d="M850.19,216.73a11.7,11.7,0,1,1-23.4,0h23.4Z" transform="translate(-2.23 -1.08)"/><circle class="cls-14" cx="836.26" cy="221.49" r="3.56"/><circle class="cls-15" cx="836.26" cy="221.49" r="2.41"/><circle class="cls-13" cx="835.05" cy="220.22" r="0.97"/><path class="cls-13" d="M883.69,216.42a11.7,11.7,0,0,0,23.4,0h-23.4Z" transform="translate(-2.23 -1.08)"/><circle class="cls-14" cx="893.16" cy="221.18" r="3.56"/><circle class="cls-15" cx="893.16" cy="221.19" r="2.41"/><circle class="cls-13" cx="894.37" cy="219.91" r="0.97"/><polyline class="cls-16" points="855.28 245.6 859.33 249.63 871.29 249.63 875.35 245.6"/><g class="cls-17"><path class="cls-5" d="M891.48,241.37a22.78,22.78,0,1,1,22.78-22.78A22.81,22.81,0,0,1,891.48,241.37Z" transform="translate(-2.23 -1.08)"/></g><g class="cls-17"><path class="cls-5" d="M843.22,241.46A22.78,22.78,0,1,1,866,218.68,22.81,22.81,0,0,1,843.22,241.46Z" transform="translate(-2.23 -1.08)"/></g><path class="cls-7" d="M891,243.23a24.64,24.64,0,1,1,24.64-24.64A24.67,24.67,0,0,1,891,243.23Zm0-45.52a20.88,20.88,0,1,0,20.88,20.88A20.91,20.91,0,0,0,891,197.71Z" transform="translate(-2.23 -1.08)"/><path class="cls-7" d="M843.22,243.23a24.64,24.64,0,1,1,24.64-24.64A24.67,24.67,0,0,1,843.22,243.23Zm0-45.52a20.88,20.88,0,1,0,20.89,20.88A20.91,20.91,0,0,0,843.22,197.71Z" transform="translate(-2.23 -1.08)"/><path class="cls-18" d="M796.65,256.47a0.53,0.53,0,0,1-.53-0.53v-4a0.53,0.53,0,0,1,1.06,0v4A0.53,0.53,0,0,1,796.65,256.47Z" transform="translate(-2.23 -1.08)"/><path class="cls-18" d="M798.67,254.45h-4a0.53,0.53,0,1,1,0-1.06h4A0.53,0.53,0,0,1,798.67,254.45Z" transform="translate(-2.23 -1.08)"/></g></g></g></svg>