<svg id="Layer_1" data-name="Layer 1" xmlns="http://www.w3.org/2000/svg" viewBox="0 0 149.44 102.89"><defs><style>.cls-1{fill:#c08f77;}.cls-2{fill:#fabe9e;}.cls-3{opacity:0.1;isolation:isolate;}.cls-4{fill:#0a4064;}.cls-5{fill:#388dcb;}</style></defs><title>handsPhoto</title><path class="cls-1" d="M1091.72,931.39l-17.06-17.06a11.47,11.47,0,1,0,0,16.22l8.95,8.95A5.74,5.74,0,0,0,1091.72,931.39Z" transform="translate(-1001.86 -896.13)"/><rect class="cls-2" x="1067.48" y="921.42" width="59.33" height="45.89" transform="translate(-1348.28 156.26) rotate(-45)"/><polygon class="cls-3" points="74.72 36.34 77.93 33.13 110.38 65.58 107.21 68.75 74.72 36.34"/><rect class="cls-3" x="1110.81" y="903.47" width="8.56" height="45.89" transform="translate(-1330.33 163.7) rotate(-45)"/><rect class="cls-4" x="1114.61" y="895.43" width="20.51" height="54.27" transform="translate(-1324.75 169.48) rotate(-45)"/><circle class="cls-5" cx="137.51" cy="40.95" r="2.3"/><path class="cls-1" d="M1109.08,964.89l-57.81-57.73-32.45,32.45,57.73,57.73a12.83,12.83,0,0,1,16.22-8.11,5.74,5.74,0,0,1,8.11-8.11A5.74,5.74,0,0,1,1109,973,5.74,5.74,0,0,0,1109.08,964.89Z" transform="translate(-1001.86 -896.13)"/><path class="cls-3" d="M1059.2,933.63a5.74,5.74,0,0,0,8.11,8.11l9.27-9.27-8.11-8.11Z" transform="translate(-1001.86 -896.13)"/><rect class="cls-3" x="1015.13" y="922.13" width="45.89" height="8.56" transform="translate(-1352.89 109.24) rotate(-45)"/><rect class="cls-4" x="1001.17" y="912.31" width="54.27" height="20.51" transform="translate(-1353.04 101.21) rotate(-45)"/><circle class="cls-5" cx="11.93" cy="40.95" r="2.3"/><circle class="cls-2" cx="46.36" cy="72.82" r="5.74"/><circle class="cls-2" cx="54.47" cy="80.93" r="5.74"/><path class="cls-2" d="M1064.44,979.43a5.74,5.74,0,1,0,5.74,5.74A5.74,5.74,0,0,0,1064.44,979.43Z" transform="translate(-1001.86 -896.13)"/><circle class="cls-2" cx="70.69" cy="97.15" r="5.74"/><path class="cls-2" d="M1094.73,914.33a11.47,11.47,0,0,0-16.22,0l-17.06,17.06a5.74,5.74,0,0,0,8.11,8.11l8.95-8.95A11.47,11.47,0,0,0,1094.73,914.33Z" transform="translate(-1001.86 -896.13)"/></svg>