<svg id="Layer_1" data-name="Layer 1" xmlns="http://www.w3.org/2000/svg" viewBox="0 0 25.17 25.25"><defs><style>.cls-1{fill:#25e0ef;}.cls-2{fill:#3c53c8;}.cls-3{fill:#bd3535;}.cls-4{fill:#e3fefe;}</style></defs><title>mail</title><circle class="cls-1" cx="12.59" cy="12.66" r="12.59"/><path class="cls-2" d="M797.62,352.17a1.12,1.12,0,0,0,.77-0.29l-3.71-3.71-0.26.18-0.68.48a4.09,4.09,0,0,1-.69.35,2.09,2.09,0,0,1-.8.18h0a2.09,2.09,0,0,1-.8-0.18,4.09,4.09,0,0,1-.69-0.35l-0.68-.48-0.26-.19-3.71,3.72a1.12,1.12,0,0,0,.77.29h10.77Z" transform="translate(-779.65 -334.36)"/><path class="cls-2" d="M786.43,345.83a3.84,3.84,0,0,1-.74-0.64v5.65l3.27-3.27Z" transform="translate(-779.65 -334.36)"/><path class="cls-2" d="M798.06,345.83l-2.54,1.74,3.27,3.27v-5.65A4.08,4.08,0,0,1,798.06,345.83Z" transform="translate(-779.65 -334.36)"/><path class="cls-2" d="M797.62,341.87H786.86a1,1,0,0,0-.87.38,1.47,1.47,0,0,0-.31,1,1.71,1.71,0,0,0,.4,1,3.56,3.56,0,0,0,.85.84l1.5,1,1.18,0.82,0.74,0.52,0.11,0.08,0.2,0.15,0.4,0.28,0.38,0.24a2.34,2.34,0,0,0,.42.2,1.16,1.16,0,0,0,.37.07h0a1.14,1.14,0,0,0,.36-0.07,2.24,2.24,0,0,0,.42-0.2l0.38-.24,0.39-.28,0.2-.15,0.11-.08,0.74-.51,2.68-1.86a3.5,3.5,0,0,0,.89-0.9,1.94,1.94,0,0,0,.36-1.1A1.18,1.18,0,0,0,797.62,341.87Z" transform="translate(-779.65 -334.36)"/><circle class="cls-3" cx="20.8" cy="3.5" r="3.5"/><path class="cls-4" d="M800.46,339.77a0.4,0.4,0,0,1-.4-0.4v-3a0.4,0.4,0,0,1,.8,0v3A0.4,0.4,0,0,1,800.46,339.77Z" transform="translate(-779.65 -334.36)"/><path class="cls-4" d="M802,338.25h-3a0.4,0.4,0,1,1,0-.8h3A0.4,0.4,0,1,1,802,338.25Z" transform="translate(-779.65 -334.36)"/></svg>