<svg id="Layer_1" data-name="Layer 1" xmlns="http://www.w3.org/2000/svg" viewBox="0 0 126.41 126.41"><defs><style>.cls-1{fill:#965ba5;}.cls-2{fill:#388dcb;}.cls-3{fill:#e5e8ec;}.cls-4{fill:#0a4064;}.cls-5{fill:#fff;}</style></defs><title>puzlePhoto</title><polygon class="cls-1" points="93.64 30.43 60.87 0 30.43 32.77 32.77 63.12 63.21 63.21 84.19 52.17 93.64 30.43"/><path class="cls-2" d="M645,1809.61L614.69,1812l-32.77-30.43,30.43-32.77,10.58,9.83a8.85,8.85,0,1,0,11.61,10.78l10.58,9.83Z" transform="translate(-581.91 -1715.97)"/><path class="cls-3" d="M675.55,1779.27l-30.43-.09-9.83,10.58a8.85,8.85,0,1,1-10.78,11.61L614.69,1812l32.77,30.43,30.43-32.77Z" transform="translate(-581.91 -1715.97)"/><path class="cls-4" d="M708.33,1776.83l-30.43,32.77-10.58-9.83A8.85,8.85,0,1,0,655.7,1789l-10.58-9.83,9.83-10.58A8.85,8.85,0,1,1,665.73,1757l9.83-10.58Z" transform="translate(-581.91 -1715.97)"/><circle class="cls-5" cx="646.99" cy="1829.74" r="1.47" transform="translate(-1716 -657.14) rotate(-47.12)"/><circle class="cls-5" cx="646.68" cy="1821.41" r="1.47" transform="translate(-1709.99 -660.03) rotate(-47.12)"/><circle class="cls-4" cx="643.25" cy="1728.61" r="1.47" transform="translate(-1643.09 -692.21) rotate(-47.12)"/></svg>