<svg xmlns="http://www.w3.org/2000/svg" viewBox="0 0 394.58 330.36"><defs><style>.cls-1{isolation:isolate;}.cls-2{fill:#1e3c59;}.cls-3{fill:#3a1600;}.cls-4{fill:#e7dfcf;}.cls-5{fill:#c72d2d;}.cls-6{fill:#7a1322;}.cls-7{fill:#6d6e70;opacity:0.8;mix-blend-mode:multiply;}.cls-8{fill:#fbdec6;}.cls-9{fill:#e8c6af;}.cls-10{fill:#e4b99b;}.cls-11{fill:#d8966a;}.cls-12{fill:#cbcecb;}.cls-13{fill:#fff;}.cls-14{fill:#563014;}.cls-15{fill:#f19800;}.cls-16{fill:#efdc61;}.cls-17{fill:#4b2c11;}.cls-18{fill:#331d0f;}.cls-19{fill:#2d1809;opacity:0.1;}.cls-20{fill:#7f5e0d;}.cls-21{fill:#00c2a2;}.cls-22{fill:#9e5820;}.cls-23{fill:#daa526;}.cls-24{fill:#302530;}.cls-25{fill:#64bdf4;}.cls-26{fill:#507fb6;}.cls-27{fill:#21120a;}</style></defs><title>threeLancers</title><g class="cls-1"><g id="Layer_1" data-name="Layer 1"><polygon class="cls-2" points="37.16 286.2 37.16 294.24 7.73 294.24 28.36 286.2 37.16 286.2"/><polygon class="cls-2" points="99.66 286.2 99.66 294.24 129.08 294.24 108.46 286.2 99.66 286.2"/><path class="cls-3" d="M788.58,1065.33h83.79v102.56H860.82v-72.32s0.55-16.41-13.54-16c-16.31.46-30.64,0-30.64,0s-16.72-.89-16.32,11.64v76.7H788.58V1065.33Z" transform="translate(-762.39 -881.69)"/><rect class="cls-4" x="50.09" y="140.5" width="35.98" height="43.76"/><polygon class="cls-5" points="81.77 120.95 111.38 120.95 111.38 184.27 72.41 184.27 81.77 120.95"/><polygon class="cls-5" points="52.47 120.95 24.46 120.95 24.46 184.27 61.87 184.27 52.47 120.95"/><path class="cls-6" d="M830.48,1055.35" transform="translate(-762.39 -881.69)"/><path class="cls-3" d="M817.65,1023.09s4.73,23.35,6.61,42.59l-12.72-30.38,2.52-2.57-6.34-5.51,5.3-5.87Z" transform="translate(-762.39 -881.69)"/><path class="cls-3" d="M841.2,1023.19s-4.74,23.35-6.63,42.59l12.73-30.37-2.52-2.58,6.33-5.5-4.78-6.06Z" transform="translate(-762.39 -881.69)"/><circle class="cls-7" cx="67.23" cy="95.07" r="50.48"/><ellipse class="cls-8" cx="67.32" cy="94.63" rx="53.57" ry="48.67"/><rect class="cls-9" x="60.91" y="54.36" width="1.92" height="57.73"/><rect class="cls-10" x="62.58" y="54.36" width="9.31" height="57.73"/><path class="cls-5" d="M776.45,1069.28h-7.62l0-16a44.43,44.43,0,0,1,1.85-9.19c5.14-16,18.17-18.16,18.73-18.24l1.16,7.53-0.58-3.77,0.62,3.76c-0.37.07-9,1.71-12.69,13.1a37.94,37.94,0,0,0-1.49,7.38v15.39Z" transform="translate(-762.39 -881.69)"/><path class="cls-8" d="M767.07,1114a0.59,0.59,0,0,0,.59.58h0.59a0.58,0.58,0,0,0,.58-0.58v-4.84h0.5v7a0.88,0.88,0,0,0,.89.88h0.69a0.88,0.88,0,0,0,.89-0.88v-7h0.55v8.35a0.9,0.9,0,0,0,.9.89h0.69a0.89,0.89,0,0,0,.89-0.89v-8.35h0.55v7.43a0.89,0.89,0,0,0,.88.89H777a0.88,0.88,0,0,0,.88-0.89v-10.1l0.76,0.75a2,2,0,0,0,1.4.58,2,2,0,0,0,1.41-.58l0.38-.37a0.65,0.65,0,0,0,0-.9l-5-5a2.83,2.83,0,0,0-.75-0.51,3.44,3.44,0,0,0-1.52-.35h-4.05a3.36,3.36,0,0,0-3.36,3.36V1114Z" transform="translate(-762.39 -881.69)"/><path class="cls-5" d="M872.29,1033.7s7.09-.19,9.06,15.1l0.13,1,8-.12a41.08,41.08,0,0,0-1.66-8.28c-4.47-13.86-15.56-15.57-15.56-15.57" transform="translate(-762.39 -881.69)"/><path class="cls-8" d="M877.63,1084.86H855.57v-6.48h22.06a5,5,0,0,0,5-5v-21h6.48v21A11.46,11.46,0,0,1,877.63,1084.86Z" transform="translate(-762.39 -881.69)"/><polyline class="cls-8" points="6.43 223.39 6.43 202.39 12.91 202.39 12.91 223.39"/><rect class="cls-3" x="117.58" y="166.59" width="11.63" height="6.29"/><path class="cls-8" d="M848.6,1088.1a0.6,0.6,0,0,1-.6-0.6v-0.61a0.6,0.6,0,0,1,.6-0.6h2.16v-0.52H848a0.83,0.83,0,0,1-.84-0.83V1084a0.84,0.84,0,0,1,.84-0.83h2.73v-0.57h-3.26a0.83,0.83,0,0,1-.83-0.83v-0.89a0.83,0.83,0,0,1,.83-0.83h3.26v-0.57h-2.94a0.83,0.83,0,0,1-.83-0.83v-0.89a0.83,0.83,0,0,1,.83-0.83h3.3v-0.19a1.08,1.08,0,0,1,.77-1l1.54-.47a3,3,0,0,1,2.66.47l2.49,1.78,0.26,0.19h0a3.47,3.47,0,0,1,1.31,2.72v4.19a3.48,3.48,0,0,1-3.48,3.47h-8.1Z" transform="translate(-762.39 -881.69)"/><path class="cls-11" d="M836.35,1001.27a6.64,6.64,0,0,1-13.27,0" transform="translate(-762.39 -881.69)"/><polygon class="cls-12" points="111.38 142.92 22.78 182.89 18.07 172.03 111.38 129.79 111.38 142.92"/><path class="cls-2" d="M764.48,1061.69V1087l1.78,4.37s3.89,2.43,4.54,2.43,19,0.81,19,.81h35.16l4.54-5V1059.1Z" transform="translate(-762.39 -881.69)"/><path class="cls-12" d="M785.7,1049.33H772.34a10,10,0,0,0-9.61,7.38l-0.34,25.63v4.43a10,10,0,0,0,9.95,9.94h50.54a10,10,0,0,0,9.94-9.94v-4.43l-0.34-25.63a9.93,9.93,0,0,0-9.6-7.38H809.49m13.39,42.25H772.34a4.82,4.82,0,0,1-4.81-4.81v-21.84a42.65,42.65,0,0,0,22.66,11.58,2.46,2.46,0,0,0,0,.44,2.57,2.57,0,0,0,2.57,2.57h10.07a2.56,2.56,0,0,0,2.52-3.05,42.64,42.64,0,0,0,22.39-11.54v21.85a4.81,4.81,0,0,1-4.81,4.81h0Zm9.94-17.78" transform="translate(-762.39 -881.69)"/><path d="M884.86,967.24A56.6,56.6,0,0,0,776.09,967a29.77,29.77,0,0,0,36.22-11.64,56.79,56.79,0,0,0,36.87-.21,29.39,29.39,0,0,0,4.18,5.27A29.78,29.78,0,0,0,884.86,967.24Z" transform="translate(-762.39 -881.69)"/><path class="cls-13" d="M818.5,980.63s-4.33,2.74-8.8,1.83-7.36-5.15-7.36-5.15,4.34-2.74,8.8-1.82S818.5,980.63,818.5,980.63Z" transform="translate(-762.39 -881.69)"/><circle class="cls-14" cx="810.42" cy="979.01" r="2.09" transform="translate(-1073.86 694.49) rotate(-78.41)"/><circle cx="810.42" cy="979.01" r="1.41" transform="translate(-1073.79 694.63) rotate(-78.42)"/><path class="cls-13" d="M810.43,978.25a0.56,0.56,0,0,1-.67.44,0.57,0.57,0,1,1,.23-1.11A0.56,0.56,0,0,1,810.43,978.25Z" transform="translate(-762.39 -881.69)"/><path class="cls-13" d="M841.7,980.63s4.33,2.74,8.8,1.83,7.36-5.15,7.36-5.15-4.34-2.74-8.8-1.82S841.7,980.63,841.7,980.63Z" transform="translate(-762.39 -881.69)"/><circle class="cls-14" cx="849.78" cy="979.01" r="2.09" transform="translate(-941.78 -690.97) rotate(-11.59)"/><circle cx="849.78" cy="979.01" r="1.41" transform="translate(-941.69 -691.09) rotate(-11.58)"/><path class="cls-13" d="M849.77,978.25a0.56,0.56,0,0,0,.67.44,0.57,0.57,0,1,0-.23-1.11A0.56,0.56,0,0,0,849.77,978.25Z" transform="translate(-762.39 -881.69)"/><circle class="cls-8" cx="13.75" cy="95.07" r="7.24"/><circle class="cls-8" cx="120.89" cy="95.07" r="7.24"/><path class="cls-15" d="M1025.65,1080.83H1018l0-52.25a45.33,45.33,0,0,1,1.86-9.19c5.15-16,18.18-18.16,18.73-18.24l1.16,7.53-0.58-3.77,0.62,3.76c-0.36.07-9,1.71-12.69,13.1a39.21,39.21,0,0,0-1.48,7.38v51.68Z" transform="translate(-762.39 -881.69)"/><path class="cls-8" d="M1016.87,1091.41a0.55,0.55,0,0,0,.54.53H1018a0.54,0.54,0,0,0,.53-0.53V1087h0.46v6.42a0.81,0.81,0,0,0,.81.81h0.64a0.81,0.81,0,0,0,.81-0.81V1087h0.5v7.66a0.83,0.83,0,0,0,.82.81h0.64a0.81,0.81,0,0,0,.81-0.81V1087h0.51v6.82a0.81,0.81,0,0,0,.81.81h0.64a0.8,0.8,0,0,0,.8-0.81v-9.26l0.69,0.69a1.8,1.8,0,0,0,1.29.53,1.83,1.83,0,0,0,1.29-.53l0.35-.35a0.59,0.59,0,0,0,.17-0.41,0.63,0.63,0,0,0-.17-0.42l-4.62-4.61a2.36,2.36,0,0,0-.69-0.47,3.13,3.13,0,0,0-1.39-.33H1020a3.09,3.09,0,0,0-3.09,3.08v9.7Z" transform="translate(-762.39 -881.69)"/><rect class="cls-2" x="292.65" y="149.05" width="15.18" height="134.23"/><rect class="cls-2" x="312.69" y="149.05" width="15.18" height="134.23"/><polyline class="cls-15" points="275.31 112.96 308.17 112.96 308.67 112.96 344.98 112.96 344.66 130.74 344.57 154.21 308.83 154.21 308 154.21 275.72 154.21 275.63 130.74"/><polygon class="cls-15" points="308.21 283.29 308.21 294.24 268.1 294.24 296.22 283.29 308.21 283.29"/><polygon class="cls-15" points="312.3 283.29 312.3 294.24 352.41 294.24 324.3 283.29 312.3 283.29"/><rect class="cls-2" x="286.85" y="115.16" width="3.46" height="39.09"/><rect class="cls-2" x="330.06" y="115.16" width="3.46" height="39.09"/><rect class="cls-2" x="284.73" y="140.5" width="7.7" height="5.42"/><rect class="cls-2" x="327.94" y="140.5" width="7.7" height="5.42"/><rect class="cls-16" x="1068.2" y="997.94" width="9.31" height="9.31" transform="translate(-1157.11 170.32) rotate(-44.99)"/><polygon class="cls-16" points="315.13 134.47 311.23 147.42 310.46 149.72 309.7 147.45 305.78 134.58 310.46 127.85 315.13 134.47"/><rect class="cls-7" x="275.3" y="112.96" width="69.67" height="4.62"/><path class="cls-8" d="M1117.87,987.24a9.61,9.61,0,0,1-9.61,9.6h-70.69a9.61,9.61,0,0,1-9.61-9.6V941.41a9.6,9.6,0,0,1,9.61-9.61h70.69a9.61,9.61,0,0,1,9.61,9.61v45.83Z" transform="translate(-762.39 -881.69)"/><rect class="cls-9" x="299.96" y="56.05" width="1.91" height="41.6"/><rect class="cls-10" x="300.91" y="56.05" width="18.47" height="41.6"/><path class="cls-13" d="M1059.15,967a8.4,8.4,0,0,1-16.8,0h16.8Z" transform="translate(-762.39 -881.69)"/><circle class="cls-17" cx="288.36" cy="89.54" r="2.55"/><ellipse class="cls-18" cx="288.36" cy="89.54" rx="1.73" ry="1.73"/><path class="cls-13" d="M1050.58,970.31a0.69,0.69,0,1,1-.69-0.68A0.69,0.69,0,0,1,1050.58,970.31Z" transform="translate(-762.39 -881.69)"/><path class="cls-13" d="M1085.7,966.82a8.39,8.39,0,0,0,16.79,0H1085.7Z" transform="translate(-762.39 -881.69)"/><circle class="cls-17" cx="331.7" cy="89.32" r="2.55"/><circle class="cls-18" cx="331.7" cy="89.32" r="1.73"/><path class="cls-13" d="M1094.27,970.1a0.69,0.69,0,1,0,.7-0.69A0.69,0.69,0,0,0,1094.27,970.1Z" transform="translate(-762.39 -881.69)"/><polyline class="cls-11" points="303.26 106.83 306.17 109.73 314.75 109.73 317.66 106.83"/><path class="cls-19" d="M1043.36,981.24c0,0.35-1.14.65-2.55,0.65s-2.55-.3-2.55-0.65,1.14-.64,2.55-0.64S1043.36,980.88,1043.36,981.24Z" transform="translate(-762.39 -881.69)"/><path class="cls-19" d="M1052.79,979.34c0,0.36-1.14.64-2.55,0.64s-2.54-.28-2.54-0.64,1.14-.65,2.54-0.65S1052.79,979,1052.79,979.34Z" transform="translate(-762.39 -881.69)"/><path class="cls-19" d="M1049.87,983c0,0.36-1.14.65-2.55,0.65s-2.54-.29-2.54-0.65,1.14-.64,2.54-0.64S1049.87,982.63,1049.87,983Z" transform="translate(-762.39 -881.69)"/><path class="cls-19" d="M1097.14,981.24c0,0.35-1.13.65-2.55,0.65s-2.55-.3-2.55-0.65,1.14-.64,2.55-0.64S1097.14,980.88,1097.14,981.24Z" transform="translate(-762.39 -881.69)"/><path class="cls-19" d="M1106.57,979.34c0,0.36-1.13.64-2.55,0.64s-2.54-.28-2.54-0.64,1.14-.65,2.54-0.65S1106.57,979,1106.57,979.34Z" transform="translate(-762.39 -881.69)"/><ellipse class="cls-19" cx="338.73" cy="101.3" rx="2.54" ry="0.64"/><path class="cls-20" d="M1126,954.52c-6.64-25.67-28.09-44.46-53.54-44.46s-46.73,18.66-53.46,44.19c10.56,4.67,23.08,2.29,31.62-7.13a31.14,31.14,0,0,0,4-5.48S1075.83,961.76,1126,954.52Z" transform="translate(-762.39 -881.69)"/><path class="cls-21" d="M1156.49,1090.7l-18.12-19.8a1.59,1.59,0,0,0-2.38-.19l-29.83,27.2a1.7,1.7,0,0,0-.11,2.46l17,18.67a3.11,3.11,0,0,0,4.65.26l28.67-26.14A1.75,1.75,0,0,0,1156.49,1090.7Z" transform="translate(-762.39 -881.69)"/><path class="cls-22" d="M1105.42,1099.68l1.27,1.4,32.35-29.5-1.28-1.4a2.92,2.92,0,0,0-4.13-.13l-28,25.51A2.92,2.92,0,0,0,1105.42,1099.68Z" transform="translate(-762.39 -881.69)"/><path class="cls-15" d="M1118.86,1080.83h7.62l0-52.25a44.43,44.43,0,0,0-1.85-9.19c-5.14-16-18.17-18.16-18.73-18.24l-1.16,7.53,0.58-3.77-0.62,3.76c0.37,0.07,9,1.71,12.69,13.1a37.93,37.93,0,0,1,1.49,7.38v51.68Z" transform="translate(-762.39 -881.69)"/><path class="cls-8" d="M1127.64,1091.41a0.54,0.54,0,0,1-.54.53h-0.54a0.54,0.54,0,0,1-.54-0.53V1087h-0.46v6.42a0.81,0.81,0,0,1-.81.81h-0.64a0.81,0.81,0,0,1-.81-0.81V1087h-0.51v7.66a0.82,0.82,0,0,1-.82.81h-0.63a0.81,0.81,0,0,1-.81-0.81V1087H1120v6.82a0.81,0.81,0,0,1-.81.81h-0.64a0.81,0.81,0,0,1-.81-0.81v-9.26l1-5.09a2.47,2.47,0,0,1,.69-0.47,3.13,3.13,0,0,1,1.39-.33h3.72a3.08,3.08,0,0,1,3.08,3.08v9.7Z" transform="translate(-762.39 -881.69)"/><path class="cls-14" d="M908.63,1090.5a0.59,0.59,0,0,0,.59.58h0.59a0.58,0.58,0,0,0,.58-0.58v-4.85h0.5v7a0.88,0.88,0,0,0,.89.88h0.69a0.88,0.88,0,0,0,.89-0.88v-7h0.55V1094a0.9,0.9,0,0,0,.9.89h0.69a0.89,0.89,0,0,0,.89-0.89v-8.35h0.55v7.43a0.89,0.89,0,0,0,.88.89h0.7a0.88,0.88,0,0,0,.88-0.89V1083l0.76,0.75a2,2,0,0,0,1.4.58,2,2,0,0,0,1.41-.58l0.38-.37a0.65,0.65,0,0,0,0-.9l-5-5a2.82,2.82,0,0,0-.75-0.51,3.44,3.44,0,0,0-1.52-.35H912a3.36,3.36,0,0,0-3.36,3.36v10.58Z" transform="translate(-762.39 -881.69)"/><rect class="cls-16" x="156.18" y="324.83" width="33.78" height="5.53"/><rect class="cls-14" x="157.88" y="317.5" width="32.07" height="7.33"/><rect class="cls-16" x="161.13" y="315.36" width="7.49" height="10.7"/><rect class="cls-14" x="180.17" y="308.57" width="9.13" height="12.6"/><rect class="cls-16" x="186.91" y="313.92" width="3.05" height="12.15"/><rect class="cls-16" x="179.06" y="313.92" width="9.47" height="3.58"/><rect class="cls-16" x="201.55" y="324.83" width="33.78" height="5.53"/><rect class="cls-14" x="201.55" y="317.5" width="32.08" height="7.33"/><rect class="cls-16" x="222.89" y="315.36" width="7.49" height="10.7"/><rect class="cls-14" x="202.21" y="308.57" width="9.13" height="12.6"/><rect class="cls-16" x="201.55" y="313.92" width="3.05" height="12.15"/><rect class="cls-16" x="202.98" y="313.92" width="9.47" height="3.58"/><rect class="cls-23" x="173.65" y="116.73" width="44.27" height="102.63"/><rect class="cls-14" x="148.48" y="149.21" width="6.04" height="47.56"/><rect class="cls-24" x="178.68" y="149.15" width="12.1" height="161.07"/><rect class="cls-24" x="200.93" y="149.15" width="12.1" height="161.07"/><path class="cls-25" d="M928.09,1006.39s-11.1,1.71-15.56,15.57a41.17,41.17,0,0,0-1.66,8.28l8,0.12,0.13-1c2-15.3,9.06-15.1,9.06-15.1v18.71h60.15V1014.2s7.09-.19,9.06,15.1l0.13,1,8-.12a41.08,41.08,0,0,0-1.66-8.28c-4.47-13.86-15.56-15.57-15.56-15.57v-8H928.09v8Z" transform="translate(-762.39 -881.69)"/><rect class="cls-26" x="146.07" y="147.08" width="11.63" height="6.29"/><rect class="cls-16" x="165.7" y="116.73" width="7.95" height="102.63"/><rect class="cls-16" x="217.92" y="116.73" width="7.95" height="102.63"/><polyline class="cls-18" points="209.69 125.43 194.98 140.14 180.27 125.43"/><circle class="cls-7" cx="195.62" cy="93.74" r="38.59"/><circle cx="149.78" cy="85.55" r="23.87"/><circle cx="149.78" cy="54.27" r="23.87"/><circle cx="168.43" cy="32.2" r="23.87"/><circle cx="196.03" cy="23.86" r="23.87"/><circle cx="222.54" cy="32.2" r="23.86"/><circle cx="239.35" cy="52.42" r="23.87"/><circle cx="239.35" cy="83.82" r="23.87"/><path d="M1015.46,950.49A57.45,57.45,0,1,1,958,893.05,57.44,57.44,0,0,1,1015.46,950.49Z" transform="translate(-762.39 -881.69)"/><path class="cls-14" d="M1001.75,967.23A43.74,43.74,0,1,1,958,923.51,43.74,43.74,0,0,1,1001.75,967.23Z" transform="translate(-762.39 -881.69)"/><polyline class="cls-18" points="186.84 113.98 190.16 117.3 199.99 117.3 203.32 113.98"/><polyline class="cls-18" points="200.19 114.14 198.09 112.04 191.87 112.04 189.76 114.14"/><polyline class="cls-27" points="186.11 103.98 176.84 98.63 176.84 87.91 186.11 82.55"/><polyline class="cls-27" points="205.12 82.55 214.4 87.91 214.4 98.63 205.12 103.98"/><circle class="cls-17" cx="174.38" cy="74.37" r="5.56"/><ellipse class="cls-18" cx="174.38" cy="74.37" rx="3.77" ry="3.77"/><circle class="cls-13" cx="172.49" cy="72.38" r="1.51"/><circle class="cls-17" cx="217.44" cy="74.37" r="5.56"/><circle class="cls-18" cx="217.44" cy="74.37" r="3.77"/><circle class="cls-13" cx="215.55" cy="72.38" r="1.51"/><path class="cls-18" d="M967.51,924.55a44.24,44.24,0,0,0-19,0v62.13h19V924.55Z" transform="translate(-762.39 -881.69)"/><rect class="cls-27" x="186.11" y="98.51" width="19.01" height="1.53"/><rect class="cls-27" x="186.11" y="95.1" width="19.01" height="1.53"/><rect class="cls-27" x="186.11" y="91.69" width="19.01" height="1.52"/><path class="cls-16" d="M915.84,978.77l-0.61-1.71a20.29,20.29,0,0,1-.64-2.08,26.45,26.45,0,0,1-.68-2.9l-0.32-1.74-0.23-1.93-0.12-1c0-.46,0-0.72,0-1.11,0-.71,0-1.46,0-2.22a39.17,39.17,0,0,1,.29-5,18.67,18.67,0,0,1,.44-2.71c0.2-.92.36-1.87,0.59-2.82a45.54,45.54,0,0,1,5-11.69,46.73,46.73,0,0,1,9.32-10.87l3-2.34,3.26-2.06a43.38,43.38,0,0,1,7.09-3.34l1.87-.69,1.93-.52a26.8,26.8,0,0,1,3.91-.89c1.32-.17,2.64-0.49,4-0.54l2-.11,1-.05,0.51,0h0.44a0.46,0.46,0,0,1,.23,0l3.75,0.2a16.77,16.77,0,0,1,2,.23l2.06,0.32a28,28,0,0,1,4,.89l1.93,0.52,1.86,0.7a42.94,42.94,0,0,1,7.1,3.33l3.26,2.07,3,2.34a46.72,46.72,0,0,1,9.32,10.87,45.78,45.78,0,0,1,5,11.7c0.23,1,.4,1.9.59,2.82a17.59,17.59,0,0,1,.44,2.7,39.85,39.85,0,0,1,.29,5c0,0.78,0,1.54,0,2.27,0,0.38,0,.69,0,1.11s-0.08.68-.12,1c-0.08.66-.16,1.29-0.23,1.9s-0.22,1.19-.32,1.76a25.06,25.06,0,0,1-.68,2.9,20.4,20.4,0,0,1-.64,2.09l-0.6,1.71s0.09-.63.24-1.79a20.82,20.82,0,0,0,.23-2.15c0-.84.16-1.8,0.15-2.89q0-.79,0-1.68c0-.61-0.06-1.24-0.08-1.9,0-.33,0-0.67-0.05-1s-0.08-.66-0.11-1c-0.08-.69-0.17-1.4-0.26-2.14a48.89,48.89,0,0,0-2.41-9.57,45.38,45.38,0,0,0-2.36-5.07c-0.5-.83-0.87-1.74-1.44-2.55l-1.67-2.51a46.26,46.26,0,0,0-8.88-9,41.18,41.18,0,0,0-11.83-6.29l-1.62-.57-1.67-.4a26.59,26.59,0,0,0-3.33-.71l-1.64-.25a10.42,10.42,0,0,0-1.73-.19l-3.75-.18h-0.27l-0.44,0-0.86,0-1.74.08c-1.16,0-2.29.3-3.43,0.44a25.82,25.82,0,0,0-3.38.71l-1.68.4-1.62.57a41.26,41.26,0,0,0-11.84,6.28,46.14,46.14,0,0,0-8.88,9L921.89,947c-0.57.82-.95,1.72-1.44,2.55a45.38,45.38,0,0,0-2.36,5.07c-0.3.85-.54,1.69-0.81,2.52a21.14,21.14,0,0,0-.69,2.41,35.37,35.37,0,0,0-.9,4.62c-0.09.76-.18,1.49-0.26,2.2,0,0.33-.1.76-0.11,1s0,0.67,0,1c0,0.65-.06,1.28-0.09,1.87s0,1.16,0,1.71c0,1.09.11,2,.16,2.89a18.71,18.71,0,0,0,.23,2.15Z" transform="translate(-762.39 -881.69)"/><path class="cls-25" d="M918.78,978.21a3.3,3.3,0,1,1-3.31-3.3A3.31,3.31,0,0,1,918.78,978.21Z" transform="translate(-762.39 -881.69)"/><path class="cls-25" d="M1004,978.21a3.3,3.3,0,1,1-3.31-3.3A3.31,3.31,0,0,1,1004,978.21Z" transform="translate(-762.39 -881.69)"/><path class="cls-2" d="M975.94,1048.34a2.82,2.82,0,0,0-4,0l4,4a2.82,2.82,0,0,0,0-4h0Zm0,0" transform="translate(-762.39 -881.69)"/><polygon class="cls-21" points="210.05 170.14 208.06 168.14 202.07 174.13 204.07 176.13 206.06 178.12 212.04 172.13 210.05 170.14"/><polygon class="cls-21" points="202.57 177.62 200.57 175.63 195.09 182.11 196.58 183.61 198.08 185.1 204.56 179.62 202.57 177.62"/><rect class="cls-25" x="972.13" y="1048.26" width="2.11" height="5.64" transform="translate(-1220.56 113.85) rotate(-44.98)"/><rect class="cls-25" x="964.65" y="1055.74" width="2.12" height="5.64" transform="translate(-1228.08 111.63) rotate(-45.02)"/><rect class="cls-2" x="967.65" y="1055.76" width="10.58" height="2.12" transform="translate(-1224.76 117.06) rotate(-45.05)"/><path class="cls-2" d="M960.47,1066.79l-3-3-3,2-0.5,4.49,4.49-.5Zm-4,1a1.06,1.06,0,1,1,1.5,0A1.05,1.05,0,0,1,956.48,1067.79Z" transform="translate(-762.39 -881.69)"/><path class="cls-14" d="M993.59,1065.35H971.52v-6.48h22.06a5,5,0,0,0,5-5v-21H1005v21A11.46,11.46,0,0,1,993.59,1065.35Z" transform="translate(-762.39 -881.69)"/><rect class="cls-26" x="233.53" y="147.08" width="11.63" height="6.29"/><path class="cls-14" d="M964.56,1068.59a0.6,0.6,0,0,1-.6-0.6v-0.61a0.6,0.6,0,0,1,.6-0.6h2.16v-0.52H964a0.83,0.83,0,0,1-.84-0.83v-0.89a0.84,0.84,0,0,1,.84-0.83h2.73v-0.57h-3.26a0.83,0.83,0,0,1-.83-0.83v-0.89a0.83,0.83,0,0,1,.83-0.83h3.26V1060h-2.94a0.83,0.83,0,0,1-.83-0.83v-0.89a0.83,0.83,0,0,1,.83-0.83h3.3v-0.19a1.08,1.08,0,0,1,.77-1l1.54-.47a3,3,0,0,1,2.66.47l2.49,1.78,0.26,0.19h0a3.47,3.47,0,0,1,1.31,2.72v4.19a3.48,3.48,0,0,1-3.48,3.47h-8.1Z" transform="translate(-762.39 -881.69)"/></g></g></svg>