<svg id="Layer_1" data-name="Layer 1" xmlns="http://www.w3.org/2000/svg" viewBox="0 0 32.48 32.48"><defs><style>.cls-1{fill:#fff;}.cls-2{fill:#35495e;}</style></defs><title>tw</title><circle class="cls-1" cx="16.24" cy="16.24" r="16.24"/><path class="cls-2" d="M141.43,7810.3a7.74,7.74,0,0,1-2.23.61,3.89,3.89,0,0,0,1.71-2.15,7.77,7.77,0,0,1-2.46.94,3.88,3.88,0,0,0-6.61,3.54,11,11,0,0,1-8-4.06,3.89,3.89,0,0,0,1.2,5.18,3.85,3.85,0,0,1-1.76-.49v0a3.88,3.88,0,0,0,3.11,3.81,3.9,3.9,0,0,1-1.75.07,3.89,3.89,0,0,0,3.63,2.7,7.84,7.84,0,0,1-5.75,1.61,11,11,0,0,0,17-9.3c0-.17,0-0.34,0-0.5a7.87,7.87,0,0,0,1.94-2h0Z" transform="translate(-115.25 -7798.63)"/></svg>